<?xml version="1.0" encoding="utf-8"?>
<!-- Generator: Adobe Illustrator 28.3.0, SVG Export Plug-In . SVG Version: 6.00 Build 0)  -->
<svg version="1.1" id="Vrstva_1" xmlns="http://www.w3.org/2000/svg" xmlns:xlink="http://www.w3.org/1999/xlink" x="0px" y="0px"
	 viewBox="0 0 24.1 20.3" style="enable-background:new 0 0 24.1 20.3;" xml:space="preserve">
<style type="text/css">
	.st0{fill:#CDC4C9;}
	.st1{fill:#FFFFFF;}
	.st2{fill:#F08792;}
	.st3{fill:#FFFFFF;stroke:#FFFFFF;stroke-width:0.5;stroke-miterlimit:10;}
	.st4{fill:#FFFFFF;stroke:#FFFFFF;stroke-width:0.25;stroke-miterlimit:10;}
	.st5{fill:#F1EAE4;}
	.st6{fill:none;stroke:#DACACB;stroke-width:0.25;stroke-miterlimit:10;}
	.st7{opacity:0.11;}
	.st8{opacity:0.38;fill:#BDB6B2;}
	.st9{opacity:0.3;}
	.st10{fill:#DACACB;}
	.st11{fill:#EDE7DE;}
	.st12{fill:none;}
	.st13{fill:#423429;}
	.st14{fill:#A87D52;}
</style>
<g>
	<path class="st1" d="M1,6.2c-0.6,0-1,0.5-1,1.1v5.9c0,0.6,0.5,1.1,1,1.1h4l9.4,6.2V0L5.1,6.2H1z"/>
	<path class="st3" d="M23.6,9.7l-5.7,0c-0.6,0-0.7,0.9-0.3,0.9l5.8,0c0.3-0.1,0.5-0.4,0.4-0.6C23.8,9.8,23.6,9.7,23.6,9.7z"/>
	<path class="st4" d="M17.2,7.9l3.5-3.6l0.1-0.1c0.1-0.3,0-0.7-0.2-0.8c-0.2-0.1-0.4,0-0.5,0L16.6,7l0,0C16.1,7.5,16.9,8.2,17.2,7.9
		z"/>
	<path class="st4" d="M16.5,13.6l3.5,3.6c0,0,0.3,0.1,0.5,0c0.2-0.1,0.3-0.5,0.2-0.8l-3.6-3.6C16.7,12.2,15.9,12.9,16.5,13.6z"/>
</g>
</svg>
