<?xml version="1.0" encoding="UTF-8"?>
<svg id="Vrstva_1" data-name="Vrstva 1" xmlns="http://www.w3.org/2000/svg" viewBox="0 0 69.26 56.57">
  <defs>
    <style>
      .cls-1 {
        fill: #cdc4c9;
      }

      .cls-1, .cls-2 {
        stroke-width: 0px;
      }

      .cls-2 {
        fill: #fff;
      }
    </style>
  </defs>
  <g>
    <rect class="cls-1" x="0" y="0" width="69.26" height="56.57" rx="4.02" ry="4.02" transform="translate(69.26 56.57) rotate(-180)"/>
    <path class="cls-2" d="M10.24,4.41c-.2.26-.4.48-.6.65-.2.17-.38.25-.53.25,0-.18.07-.4.21-.65.14-.25.31-.48.51-.72.2-.23.41-.45.62-.65.22-.2.42-.35.6-.44-.03.22-.12.46-.28.74-.15.28-.33.55-.53.81Z"/>
    <polygon class="cls-2" points="4.12 15.88 4.63 13.48 5.37 13.85 4.63 16.48 4.12 15.88"/>
    <path class="cls-2" d="M6.5,15.99s-.04,0-.07-.14c-.03-.14-.05-.47-.05-.99,0-.25.06-.6.18-1.06,0-.03,0-.16-.02-.39-.01-.23-.03-.47-.05-.72-.01-.25-.03-.48-.05-.69-.01-.22-.02-.34-.02-.37l-.09-.42-.55.09c0-.06-.01-.15-.05-.28-.03-.12-.05-.22-.05-.28,0-.22.09-.42.25-.6.17-.18.36-.29.58-.32l.28-1.11c.09-.55.24-.98.44-1.27.2-.29.35-.55.44-.76l.37,1.71-1.48,7.15c-.03.25-.05.39-.07.44Z"/>
    <path class="cls-2" d="M9.24,10.16c.09-.49.22-.98.39-1.48.17-.49.38-1.05.62-1.66l.78-1.25c-.09,1.29-.35,2.31-.78,3.05-.43.74-.77,1.19-1.02,1.34Z"/>
    <path class="cls-2" d="M58.38,51.65c.42-.54,1.04-1.26,1.86-2.17l-.08,1.69c-.06,0-.18.14-.36.39-.19.25-.38.52-.59.8-.21.28-.44.56-.68.82-.24.26-.44.4-.61.43l-.58-.5c.27-.43.62-.92,1.04-1.46Z"/>
    <path class="cls-2" d="M66.02,51.12c-.02.23-.24.54-.66.94-.42.4-.67.66-.76.79l-1.48.22c-.38.06-.66.09-.83.08-.17,0-.37-.04-.61-.12l-.07-.49,4.05-1.62.37.2Z"/>
    <path class="cls-2" d="M64.34,43.48c.2-.37.38-.56.54-.59l.35.11c-.03.9-.39,2.25-1.08,4.03l-.5,1.17-.85-.04-.1-.66c.11-.35.26-.8.43-1.33.17-.53.36-1.02.58-1.47.21-.45.42-.86.61-1.23Z"/>
  </g>
  <path class="cls-2" d="M41.65,48.56c2.67-2.24-.27-8.62-2.94-11.75-2.07-2.43-5.89-6.98-6.15-7.28h0s4-4.6,6.14-7.12c2.66-3.13,5.61-9.51,2.94-11.75-6.34-5.32-17.86,18.94-17.85,18.95,0,0,11.62,24.18,17.85,18.95Z"/>
</svg>