<?xml version="1.0" encoding="utf-8"?>
<!-- Generator: Adobe Illustrator 28.3.0, SVG Export Plug-In . SVG Version: 6.00 Build 0)  -->
<svg version="1.1" id="Vrstva_1" xmlns="http://www.w3.org/2000/svg" xmlns:xlink="http://www.w3.org/1999/xlink" x="0px" y="0px"
	 viewBox="0 0 521.7 62.8" style="enable-background:new 0 0 521.7 62.8;" xml:space="preserve">
<style type="text/css">
	.st0{fill:#CDC4C9;}
	.st1{fill:#FFFFFF;}
	.st2{fill:#F08792;}
	.st3{fill:#FFFFFF;stroke:#FFFFFF;stroke-width:0.5;stroke-miterlimit:10;}
	.st4{fill:#FFFFFF;stroke:#FFFFFF;stroke-width:0.25;stroke-miterlimit:10;}
	.st5{fill:#F1EAE4;}
	.st6{fill:none;stroke:#DACACB;stroke-width:0.25;stroke-miterlimit:10;}
	.st7{opacity:0.11;}
	.st8{opacity:0.38;fill:#BDB6B2;}
	.st9{opacity:0.3;}
	.st10{fill:#DACACB;}
	.st11{fill:#EDE7DE;}
	.st12{fill:none;}
	.st13{fill:#423429;}
	.st14{fill:#A87D52;}
</style>
<g>
	<path class="st5" d="M2,50.7L0,61.8L22.7,61l30.2-0.3l28.6,1.6l27.8-0.8l21.3,1.1l28.5-1.9l48.1,1.6l23.4,0l14.2-1l24,0.5l44.9-0.6
		l43.7,1.6l33.5-1.5l35,0.5l34.6-1l27.2,1h33l-2-11.4l3-20.9l-3-19.4l2-10.1H0l2,10.7L0,29.5L2,50.7z M509.9,15.9l-0.3-0.1
		c-0.5-0.2-0.8-0.4-1.1-0.7l-0.1-0.1l0.5-0.3l1.5,0.2l0,0.7L509.9,15.9z M509.7,5.5c0.2-0.2,0.4-0.5,0.7-0.8
		c0.3-0.3,0.5-0.5,0.7-0.7c0.3-0.3,0.4-0.4,0.5-0.4l0.7-0.5l-0.1,1.4c-0.1,0.1-0.2,0.3-0.4,0.5v0c-0.2,0.2-0.4,0.5-0.6,0.7
		c-0.2,0.2-0.4,0.5-0.6,0.7c-0.2,0.3-0.5,0.4-0.7,0.4l-0.5,0.1l-0.1-0.8C509.4,6,509.4,5.9,509.7,5.5z M507.7,11.2l1.5,1.4l-2.2,0
		L507.7,11.2z M504.2,9.6l1.8,0.4l-0.5,1l-1.3-0.5L504.2,9.6z M496.2,4.9c0-0.1,0.2-0.1,0.3-0.2c0.1,0,0.2,0,0.3,0
		c0.2,0,0.5,0.1,1,0.2c0.6,0.2,1.2,0.4,1.8,0.6c0.2,0.1,0.4,0.2,0.7,0.4c0.3,0.2,0.5,0.3,0.6,0.3l1.2,0.5l-1.6-0.2
		c-0.4,0-0.9-0.2-1.4-0.4c0,0-0.1,0-0.1,0l0.3,0.3l-1.2-0.5c-0.6-0.2-1-0.4-1.2-0.5c-0.3-0.1-0.5-0.2-0.6-0.3L496.2,4.9L496.2,4.9z
		 M489.5,3.3c0.1-0.1,0.3-0.1,0.6-0.1c0,0,0,0,0,0c0.2,0,0.3,0,0.5,0.1l1.7,0.2L490.9,4l-1.7-0.6L489.5,3.3z M488.7,7.5l0.3,0.1
		c1.2,0.3,2.4,0.7,3.8,1c1.3,0.4,3,0.8,4.9,1.3l0.1,0.1l1.2,0.8l-0.9-0.1c-0.2,0-0.5-0.1-0.8-0.1c-0.3-0.1-0.6-0.1-1-0.2
		c-0.3-0.1-0.6-0.2-0.9-0.2c-0.3-0.1-0.5-0.1-0.6-0.1l-0.1-0.1l-0.4-0.2l-0.4-0.1c-1.2-0.3-2.3-0.6-3.2-0.8
		c-0.9-0.3-1.7-0.5-2.2-0.7L488,7.9L488.7,7.5z M482.8,2.7l3.5,0l0,0.5l-0.1,0.1c-0.2,0.1-0.4,0.1-0.8,0.1c-0.3,0-0.6,0-0.9,0
		c-0.3,0-0.7,0-1-0.1c-0.4,0-0.6-0.1-0.7-0.1c-0.1,0-0.1-0.1-0.2-0.1c-0.1,0-0.1-0.1-0.2-0.1l-0.9-0.3L482.8,2.7z M479.9,3.8
		l0.8,0.3l-1.9,0.4l-1-0.4L479.9,3.8z M90.3,58.2l-2.9-0.7l5.5,0L90.3,58.2z M84,55.4c0.1,0,0.3,0,0.6,0c0.4,0,0.8-0.1,1.3-0.1
		l1.5-0.1c0.5,0,0.9,0,1.1,0c0.1,0,0.1,0,0.2,0c0.6,0,1.3,0,2,0c0.9,0,1.9,0,2.9,0.1c1,0,2.1,0.1,3.1,0.1c1.1,0.1,1.9,0.1,2.7,0.2
		l1.8,0.2l-2.2,0C98.4,56,97.6,56,97,56c-2.8,0-5.4,0-7.7-0.1c-2.3-0.1-4.1-0.2-5.3-0.3l-1.6-0.2L84,55.4z M82.2,57.1
		c1.1,0.1,2.3,0.2,3.6,0.4l0.9,0.2l-0.9,0.1c-1,0.1-1.7,0.1-2.3,0.2C82.9,58,82.4,58,82,58c-0.4,0-0.9,0-1.5,0
		c-0.6,0-1.2-0.1-1.9-0.1c-0.6-0.1-1.2-0.1-1.6-0.2c-0.5-0.1-0.8-0.1-1-0.2l-0.4-0.1l0.5-0.1c0.6-0.1,1.1-0.2,1.5-0.2c0.4,0,1,0,2,0
		c0,0,0.1,0,0.1,0C80.4,57,81.2,57.1,82.2,57.1z M79.6,55.1L78,55.9l-2.9,0l0-0.4L79.6,55.1z M69.5,55.7l1.4-0.3l2.5,0.7l-8.2,0.3
		l-0.1-0.2L69.5,55.7z M57.2,52.5l6.6,0l-3.3,0.7l-0.1,0l-4.7-0.2L57.2,52.5z M53.5,52.4l1.2,0.7l-3.9,0.1l-0.4-0.9L53.5,52.4z
		 M42.1,52.7l1.6,0.3l0,0.5l-2.1,0.2l-1.6-0.4L42.1,52.7z M16.2,7.2l2,1.8l-2,1.9V7.2z M15.5,12.7c0.1-0.5,0.4-1.1,0.9-1.7l0.7-0.9
		l0.3,1c0.1,0.5,0.2,0.8,0.3,1.1c0.1,0.3,0.1,0.5,0.1,0.7c0,0.2,0,0.4-0.1,0.7c-0.1,0.3-0.2,0.6-0.3,0.9c-0.1,0.3-0.2,0.6-0.4,0.8
		c-0.2,0.3-0.3,0.4-0.4,0.5L16,16.2l-0.3-0.5c-0.2-0.3-0.3-0.5-0.3-0.7c0-0.2,0-0.5,0-1C15.3,13.7,15.4,13.2,15.5,12.7z M13.4,20.8
		l-0.7-2L12.1,18l1.8-1.6l0.5,4.3L13.4,20.8z M11.8,8.7c0-0.4,0.1-0.9,0.2-1.4c0.1-0.5,0.2-1,0.3-1.5c0.1-0.5,0.3-0.9,0.5-1.3l1-1.9
		v2c0.2,0.4,0.3,0.8,0.3,1.1c0,1.3-0.1,2.5-0.2,3.6c-0.1,1.1-0.4,2-0.7,2.5l-1,1.6v-1.7c0,0,0-0.1-0.1-0.3C12.1,11.4,12,11.2,12,11
		l-0.1-0.7c0-0.2-0.1-0.4-0.1-0.5C11.8,9.5,11.8,9.1,11.8,8.7z M13.7,14.7l-0.1,1.5h-1.3l-0.9-2.7L13.7,14.7z"/>
	<g>
		<defs>
			<path id="SVGID_00000132048732587535674040000000361388910460999079_" d="M2,50.7L0,61.8L22.7,61l30.2-0.3l28.6,1.6l27.8-0.8
				l21.3,1.1l28.5-1.9l48.1,1.6l23.4,0l14.2-1l24,0.5l44.9-0.6l43.7,1.6l33.5-1.5l35,0.5l34.6-1l27.2,1h33l-2-11.4l3-20.9l-3-19.4
				l2-10.1H0l2,10.7L0,29.5L2,50.7z M509.9,15.9l-0.3-0.1c-0.5-0.2-0.8-0.4-1.1-0.7l-0.1-0.1l0.5-0.3l1.5,0.2l0,0.7L509.9,15.9z
				 M509.7,5.5c0.2-0.2,0.4-0.5,0.7-0.8c0.3-0.3,0.5-0.5,0.7-0.7c0.3-0.3,0.4-0.4,0.5-0.4l0.7-0.5l-0.1,1.4
				c-0.1,0.1-0.2,0.3-0.4,0.5v0c-0.2,0.2-0.4,0.5-0.6,0.7c-0.2,0.2-0.4,0.5-0.6,0.7c-0.2,0.3-0.5,0.4-0.7,0.4l-0.5,0.1l-0.1-0.8
				C509.4,6,509.4,5.9,509.7,5.5z M507.7,11.2l1.5,1.4l-2.2,0L507.7,11.2z M504.2,9.6l1.8,0.4l-0.5,1l-1.3-0.5L504.2,9.6z
				 M496.2,4.9c0-0.1,0.2-0.1,0.3-0.2c0.1,0,0.2,0,0.3,0c0.2,0,0.5,0.1,1,0.2c0.6,0.2,1.2,0.4,1.8,0.6c0.2,0.1,0.4,0.2,0.7,0.4
				c0.3,0.2,0.5,0.3,0.6,0.3l1.2,0.5l-1.6-0.2c-0.4,0-0.9-0.2-1.4-0.4c0,0-0.1,0-0.1,0l0.3,0.3l-1.2-0.5c-0.6-0.2-1-0.4-1.2-0.5
				c-0.3-0.1-0.5-0.2-0.6-0.3L496.2,4.9L496.2,4.9z M489.5,3.3c0.1-0.1,0.3-0.1,0.6-0.1c0,0,0,0,0,0c0.2,0,0.3,0,0.5,0.1l1.7,0.2
				L490.9,4l-1.7-0.6L489.5,3.3z M488.7,7.5l0.3,0.1c1.2,0.3,2.4,0.7,3.8,1c1.3,0.4,3,0.8,4.9,1.3l0.1,0.1l1.2,0.8l-0.9-0.1
				c-0.2,0-0.5-0.1-0.8-0.1c-0.3-0.1-0.6-0.1-1-0.2c-0.3-0.1-0.6-0.2-0.9-0.2c-0.3-0.1-0.5-0.1-0.6-0.1l-0.1-0.1l-0.4-0.2l-0.4-0.1
				c-1.2-0.3-2.3-0.6-3.2-0.8c-0.9-0.3-1.7-0.5-2.2-0.7L488,7.9L488.7,7.5z M482.8,2.7l3.5,0l0,0.5l-0.1,0.1
				c-0.2,0.1-0.4,0.1-0.8,0.1c-0.3,0-0.6,0-0.9,0c-0.3,0-0.7,0-1-0.1c-0.4,0-0.6-0.1-0.7-0.1c-0.1,0-0.1-0.1-0.2-0.1
				c-0.1,0-0.1-0.1-0.2-0.1l-0.9-0.3L482.8,2.7z M479.9,3.8l0.8,0.3l-1.9,0.4l-1-0.4L479.9,3.8z M90.3,58.2l-2.9-0.7l5.5,0
				L90.3,58.2z M84,55.4c0.1,0,0.3,0,0.6,0c0.4,0,0.8-0.1,1.3-0.1l1.5-0.1c0.5,0,0.9,0,1.1,0c0.1,0,0.1,0,0.2,0c0.6,0,1.3,0,2,0
				c0.9,0,1.9,0,2.9,0.1c1,0,2.1,0.1,3.1,0.1c1.1,0.1,1.9,0.1,2.7,0.2l1.8,0.2l-2.2,0C98.4,56,97.6,56,97,56c-2.8,0-5.4,0-7.7-0.1
				c-2.3-0.1-4.1-0.2-5.3-0.3l-1.6-0.2L84,55.4z M82.2,57.1c1.1,0.1,2.3,0.2,3.6,0.4l0.9,0.2l-0.9,0.1c-1,0.1-1.7,0.1-2.3,0.2
				C82.9,58,82.4,58,82,58c-0.4,0-0.9,0-1.5,0c-0.6,0-1.2-0.1-1.9-0.1c-0.6-0.1-1.2-0.1-1.6-0.2c-0.5-0.1-0.8-0.1-1-0.2l-0.4-0.1
				l0.5-0.1c0.6-0.1,1.1-0.2,1.5-0.2c0.4,0,1,0,2,0c0,0,0.1,0,0.1,0C80.4,57,81.2,57.1,82.2,57.1z M79.6,55.1L78,55.9l-2.9,0l0-0.4
				L79.6,55.1z M69.5,55.7l1.4-0.3l2.5,0.7l-8.2,0.3l-0.1-0.2L69.5,55.7z M57.2,52.5l6.6,0l-3.3,0.7l-0.1,0l-4.7-0.2L57.2,52.5z
				 M53.5,52.4l1.2,0.7l-3.9,0.1l-0.4-0.9L53.5,52.4z M42.1,52.7l1.6,0.3l0,0.5l-2.1,0.2l-1.6-0.4L42.1,52.7z M16.2,7.2l2,1.8
				l-2,1.9V7.2z M15.5,12.7c0.1-0.5,0.4-1.1,0.9-1.7l0.7-0.9l0.3,1c0.1,0.5,0.2,0.8,0.3,1.1c0.1,0.3,0.1,0.5,0.1,0.7
				c0,0.2,0,0.4-0.1,0.7c-0.1,0.3-0.2,0.6-0.3,0.9c-0.1,0.3-0.2,0.6-0.4,0.8c-0.2,0.3-0.3,0.4-0.4,0.5L16,16.2l-0.3-0.5
				c-0.2-0.3-0.3-0.5-0.3-0.7c0-0.2,0-0.5,0-1C15.3,13.7,15.4,13.2,15.5,12.7z M13.4,20.8l-0.7-2L12.1,18l1.8-1.6l0.5,4.3L13.4,20.8
				z M11.8,8.7c0-0.4,0.1-0.9,0.2-1.4c0.1-0.5,0.2-1,0.3-1.5c0.1-0.5,0.3-0.9,0.5-1.3l1-1.9v2c0.2,0.4,0.3,0.8,0.3,1.1
				c0,1.3-0.1,2.5-0.2,3.6c-0.1,1.1-0.4,2-0.7,2.5l-1,1.6v-1.7c0,0,0-0.1-0.1-0.3C12.1,11.4,12,11.2,12,11l-0.1-0.7
				c0-0.2-0.1-0.4-0.1-0.5C11.8,9.5,11.8,9.1,11.8,8.7z M13.7,14.7l-0.1,1.5h-1.3l-0.9-2.7L13.7,14.7z"/>
		</defs>
		<clipPath id="SVGID_00000073723390841446894910000002254724774042455449_">
			<use xlink:href="#SVGID_00000132048732587535674040000000361388910460999079_"  style="overflow:visible;"/>
		</clipPath>
	</g>
</g>
</svg>
