<?xml version="1.0" encoding="utf-8"?>
<!-- Generator: Adobe Illustrator 28.3.0, SVG Export Plug-In . SVG Version: 6.00 Build 0)  -->
<svg version="1.1" id="Vrstva_1" xmlns="http://www.w3.org/2000/svg" xmlns:xlink="http://www.w3.org/1999/xlink" x="0px" y="0px"
	 viewBox="0 0 546.1 178.5" style="enable-background:new 0 0 546.1 178.5;" xml:space="preserve">
<style type="text/css">
	.st0{fill:#CDC4C9;}
	.st1{fill:#FFFFFF;}
	.st2{fill:#F08792;}
	.st3{fill:#FFFFFF;stroke:#FFFFFF;stroke-width:0.5;stroke-miterlimit:10;}
	.st4{fill:#FFFFFF;stroke:#FFFFFF;stroke-width:0.25;stroke-miterlimit:10;}
	.st5{fill:#F1EAE4;}
	.st6{fill:none;stroke:#DACACB;stroke-width:0.25;stroke-miterlimit:10;}
	.st7{opacity:0.11;}
	.st8{opacity:0.38;fill:#BDB6B2;}
	.st9{opacity:0.3;}
	.st10{fill:#DACACB;}
	.st11{fill:#EDE7DE;}
	.st12{fill:none;}
	.st13{fill:#423429;}
	.st14{fill:#A87D52;}
</style>
<g>
	<path class="st5" d="M529.6,106.9l-3-42.6l2-23.2h-32.8l-27,2l-34.4-2l-34.8,1L366.3,39l-43.4,3.3l-44.6-1.2l-23.9,1l-14.1-2
		L217,40.2l-47.8,3.2l-28.3-3.9l-21.2,2.3L74.1,20.7l13.7-14L50,17.4l13.5,26l-30.1-0.6L11,41.1l2,22.6l-2,43.1l2,38.2L11,167h30.2
		l17-2l42.2,4l43.5-2l46.6,1l25.2-3l34,3l25.2-2l41.6,1l46.6-1l29.6,2l30.9-2l37.2,2l37.2-2l30.6,1l-2-20.5L529.6,106.9z M22.3,93.3
		v0.3C22.1,92.9,22,92,21.8,91c-0.1-1-0.2-2-0.3-3c-0.1-1-0.1-1.9-0.2-2.8c0-0.9-0.1-1.6-0.1-2.1c0-0.2,0-0.6,0.1-1.1
		c0-0.5,0.1-0.9,0.1-1.4c0-0.5,0.1-0.9,0.1-1.3c0-0.4,0.1-0.6,0.1-0.6c0.3,1.1,0.5,2.7,0.7,5s0.2,4.7,0.2,7.4
		C22.6,91.8,22.5,92.5,22.3,93.3z M21.3,73.9l0.5-3.4h0.3l0.1,2.5L21.3,73.9z M22.5,67.8l-0.8-1.5l0.5-1.3l0.7-4.1L22.5,67.8z
		 M24.8,74.4c0-0.9,0-1.5,0-1.9c0-0.4,0.1-0.9,0.3-1.4c0.1,0.1,0.2,0.4,0.3,0.9c0.1,0.4,0.3,1,0.4,1.5c0.1,0.6,0.2,1.2,0.3,1.8
		c0.1,0.6,0.1,1.1,0.1,1.4c0,0.4,0,0.9-0.1,1.4c-0.1,0.5-0.2,1.2-0.3,2.2C25.4,79.1,25.1,78,25,77C24.9,76,24.8,75.2,24.8,74.4z
		 M25.7,86.4V83l0.9,1.8L25.7,86.4z M60.2,25.8c-1-0.3-1.6-0.6-1.9-1c-0.7-0.8-1.3-2-2-3.5l-0.6-1.6l5.1,6.4L60.2,25.8z M63.7,30.6
		l-0.5-1.3l1-0.3l0.2,0.7L63.7,30.6z M66.7,26.8c-0.2,0.1-0.4,0.2-0.6,0.2c-0.2,0-0.4,0-0.6,0c-0.2-0.1-0.5-0.3-0.8-0.7
		c-0.4-0.5-0.7-1.1-0.9-1.9c-0.2-0.8-0.3-1.3-0.4-1.6c0.5,0.6,1.2,1.4,2.1,2.2c0.9,0.8,1.5,1.4,1.9,1.7
		C67.1,26.6,66.9,26.7,66.7,26.8z M356.3,58.3l-1.3,0.6l-1.5-0.9l1.1-0.6l1.7,0.4L356.3,58.3z M402.9,48.3l1.7,1l-3.5,0L402.9,48.3z
		 M366.2,59.4l-2.7,0l0.3-1.2l3.2,0.2L366.2,59.4z M370,59.3l-0.7-0.4l3.9-0.4l2,0.8L370,59.3z M383.6,53.4l-1.4-0.6L378,52l7.3,0.5
		L383.6,53.4z M388,53.3l0-0.4l2.6-0.1l1,1L388,53.3z M392.2,50.1c-0.9,0-1.6,0-2-0.1c-0.4,0-0.9-0.1-1.4-0.3
		c0.1-0.1,0.5-0.2,0.9-0.4c0.5-0.1,1-0.3,1.6-0.4c0.6-0.1,1.2-0.2,1.8-0.3c0.6-0.1,1.1-0.1,1.5-0.1c0.4,0,0.9,0,1.5,0.1
		c0.5,0.1,1.3,0.2,2.3,0.3c-1.3,0.5-2.4,0.8-3.5,0.9C393.8,50,392.9,50.1,392.2,50.1z M409.4,53.4c-1,0.1-2,0.2-3.1,0.3
		c-1,0.1-2,0.1-2.9,0.2c-0.9,0-1.6,0.1-2.2,0.1c-0.2,0-0.6,0-1.1-0.1c-0.5-0.1-1-0.1-1.5-0.2c-0.5-0.1-0.9-0.1-1.3-0.2
		c-0.4-0.1-0.6-0.1-0.7-0.1c1.1-0.3,2.8-0.6,5.2-0.7s4.9-0.2,7.7-0.2c0.6,0,1.4,0.1,2.2,0.3l0.3,0C411.3,53.1,410.4,53.3,409.4,53.4
		z M486.1,158.3l-1.2-0.4l0.3-0.2l1.1,0.5L486.1,158.3z M492.1,160.6l-3.1,0.1c0,0,0.1-0.1,0.1-0.1c0,0,0.1-0.1,0.1-0.1
		c0-0.1,0.1-0.1,0.1-0.2c0.1-0.1,0.3-0.2,0.6-0.2c0.3-0.1,0.6-0.1,0.9-0.1c0.3,0,0.6,0,0.9,0c0.3,0,0.4,0,0.5,0.1L492.1,160.6z
		 M496.6,159.5c-0.3,0.2-0.5,0.2-0.6,0l1.1-0.8l0.6,0.5L496.6,159.5z M495.1,150.7l-0.3-0.3c0.6-0.4,1.3-0.9,2.2-1.4
		c0.9-0.5,1.9-1.1,3.1-1.7l0.5-0.3l0.5-0.5c0.1,0,0.3-0.1,0.6-0.3c0.3-0.1,0.6-0.3,0.9-0.4c0.3-0.2,0.6-0.3,0.9-0.4
		c0.3-0.1,0.6-0.2,0.7-0.3l-0.6,0.9c-1.9,1-3.5,1.9-4.9,2.6C497.5,149.3,496.2,150,495.1,150.7z M506.1,154.3
		c-0.3,0.3-0.5,0.6-0.7,0.7c-0.6,0.5-1.2,0.9-1.8,1.2c-0.6,0.3-0.9,0.4-1,0.2c0.1-0.2,0.3-0.4,0.6-0.6c0.2-0.3,0.6-0.6,1.2-1
		l-0.2,0.4c0.3-0.1,0.7-0.4,1.2-0.8c0.5-0.4,0.9-0.6,1.3-0.7C506.6,153.8,506.4,154,506.1,154.3z M510.6,146.4l-0.1-1.1l0.7-0.6
		l0.3,1.2L510.6,146.4z M513.9,142.6l-0.4-1.4l1.1,0L513.9,142.6z M515,136c0.2-0.6,0.6-1,1-1.3l0.3,0.3l0,1.1l-1,0.2L515,136z
		 M517.5,158.1c-0.2-0.5-0.5-1-0.7-1.5c-0.2-0.5-0.5-1.1-0.7-1.6c-0.2-0.5-0.3-0.8-0.3-0.9l0.1-1.2c0.1,0,0.3,0.2,0.5,0.6
		c0.2,0.4,0.4,0.8,0.6,1.3c0.2,0.5,0.4,1,0.6,1.5c0.2,0.5,0.3,0.8,0.4,1l0.1,1.6C517.9,158.9,517.8,158.6,517.5,158.1z"/>
	<g class="st9">
		<defs>
			<path id="SVGID_00000017496786129403238040000014319256243937381803_" class="st9" d="M11,106.9l2,38.2L11,167h30.2l17-2l42.2,4
				l43.5-2l46.6,1l25.2-3l34,3l25.2-2l41.6,1l46.6-1l29.6,2l30.9-2l37.2,2l37.2-2l30.6,1l-2-20.5l3-39.5l-3-42.6l2-23.2h-32.8l-27,2
				l-34.4-2l-34.8,1L366.3,39l-43.4,3.3l-44.6-1.2l-23.9,1l-14.1-2L217,40.2l-47.8,3.2l-28.3-3.9l-21.2,2.3L74.1,20.7l13.7-14
				L50,17.4l13.5,26l-30.1-0.6L11,41.1l2,22.6L11,106.9z M515.8,90.9c0-2.7,0.1-5.1,0.2-7.4c0.1-2.2,0.4-3.9,0.7-5
				c0,0,0,0.3,0.1,0.6c0,0.4,0.1,0.8,0.1,1.3c0,0.5,0.1,0.9,0.1,1.4c0,0.5,0.1,0.8,0.1,1.1c0,0.6,0,1.3-0.1,2.1
				c0,0.9-0.1,1.8-0.2,2.8s-0.2,2-0.3,3s-0.3,1.8-0.5,2.5V93C515.9,92.2,515.8,91.5,515.8,90.9z M516.2,72.6l0.1-2.5h0.3l0.5,3.4
				L516.2,72.6z M515.5,60.4l0.7,4.1l0.5,1.3l-0.8,1.5L515.5,60.4z M513.4,76.7c-0.1,1-0.4,2.1-0.8,3.3c-0.1-0.9-0.2-1.7-0.3-2.2
				c-0.1-0.5-0.1-1-0.1-1.4c0-0.4,0-0.9,0.1-1.4c0.1-0.6,0.2-1.2,0.3-1.8c0.1-0.6,0.2-1.1,0.4-1.5c0.1-0.4,0.2-0.7,0.3-0.9
				c0.2,0.5,0.3,1,0.3,1.4c0,0.4,0,1,0,1.9C513.6,74.8,513.5,75.7,513.4,76.7z M511.8,84.5l0.9-1.8v3.4L511.8,84.5z M182,57.4
				l1.7-0.4l1.1,0.6l-1.5,0.9L182,58L182,57.4z M171.4,58.1l3.2-0.2l0.3,1.2l-2.7,0L171.4,58.1z M137.3,48.9l-3.5,0l1.7-1
				L137.3,48.9z M163.2,59l2-0.8l3.9,0.4l-0.7,0.4L163.2,59z M153.1,52.2l7.3-0.5l-4.3,0.8l-1.4,0.6L153.1,52.2z M146.8,53.6l1-1
				l2.6,0.1l0,0.4L146.8,53.6z M143.5,49.6c-1-0.1-2.2-0.4-3.5-0.9c1-0.2,1.7-0.3,2.3-0.3c0.5-0.1,1-0.1,1.5-0.1
				c0.4,0,0.9,0,1.5,0.1c0.6,0.1,1.2,0.2,1.8,0.3c0.6,0.1,1.1,0.2,1.6,0.4c0.5,0.1,0.8,0.3,0.9,0.4c-0.5,0.2-1,0.3-1.4,0.3
				c-0.4,0-1.1,0-2,0.1C145.5,49.8,144.6,49.7,143.5,49.6z M126.4,52.6l0.3,0c0.8-0.2,1.6-0.3,2.2-0.3c2.8,0,5.3,0,7.7,0.2
				c2.3,0.1,4.1,0.4,5.2,0.7c0,0-0.3,0-0.7,0.1c-0.4,0.1-0.8,0.1-1.3,0.2c-0.5,0.1-1,0.1-1.5,0.2c-0.5,0.1-0.9,0.1-1.1,0.1
				c-0.6,0-1.3,0-2.2-0.1c-0.9,0-1.9-0.1-2.9-0.2c-1-0.1-2-0.2-3.1-0.3C128,53,127.1,52.8,126.4,52.6z M60.8,26.1l-0.6-0.3
				c-1-0.3-1.6-0.6-1.9-1c-0.7-0.8-1.3-2-2-3.5l-0.6-1.6L60.8,26.1z M64.6,26.2c-0.4-0.5-0.7-1.1-0.9-1.9c-0.2-0.8-0.3-1.3-0.4-1.6
				c0.5,0.6,1.2,1.4,2.1,2.2c0.9,0.8,1.5,1.4,1.9,1.7c-0.3,0-0.5,0-0.7,0.1c-0.2,0.1-0.4,0.2-0.6,0.2c-0.2,0-0.4,0-0.6,0
				C65.2,26.9,64.9,26.6,64.6,26.2z M63.7,30.6l-0.5-1.3l1-0.3l0.2,0.7L63.7,30.6z M51.6,157.8l1.6-0.7l0.8,0.6l-1.8,0.6L51.6,157.8
				z M46,159.6L46,159.6c0.2-0.2,0.4-0.3,0.8-0.3c0,0,0,0,0,0c0.3,0,0.6,0,0.9,0c0.3,0,0.6,0.1,0.9,0.1c0.3,0.1,0.5,0.2,0.7,0.3
				c0.1,0,0.1,0.1,0.1,0.2c0.1,0.1,0.1,0.1,0.2,0.2l0.6,0.5l-4.1-0.1L46,159.6z M40.2,159.1l1.1-1l1.5,1.1l-0.2,0.2
				c-0.2,0.2-0.3,0.2-0.5,0.2c0,0,0,0,0,0c-0.1,0-0.3-0.1-0.4-0.2L40.2,159.1z M23.3,136.3l-1.3-0.3l0-1.3l0.5-0.6l0.2,0.2
				c0.4,0.4,0.8,0.8,1.1,1.4l0.1,0.1L23.3,136.3z M20.1,159.5l0.1-2.4l0-0.1c0.1-0.2,0.2-0.6,0.4-1v0c0.2-0.5,0.4-1,0.6-1.5
				c0.2-0.5,0.4-0.9,0.6-1.3c0.2-0.5,0.4-0.7,0.6-0.8l0.3-0.1l0.1,1.5c0,0.1,0,0.3-0.3,1c-0.2,0.5-0.4,1-0.7,1.6
				c-0.2,0.6-0.5,1.1-0.7,1.5c-0.3,0.6-0.4,0.8-0.5,0.9L20.1,159.5z"/>
		</defs>
		<clipPath id="SVGID_00000059301384472751731890000007881453594218988211_">
			<use xlink:href="#SVGID_00000017496786129403238040000014319256243937381803_"  style="overflow:visible;"/>
		</clipPath>
	</g>
	<g>
		<defs>
			<path id="SVGID_00000116234717886900465370000002932739207485520256_" d="M11,106.9l2,38.2L11,167h30.2l17-2l42.2,4l43.5-2
				l46.6,1l25.2-3l34,3l25.2-2l41.6,1l46.6-1l29.6,2l30.9-2l37.2,2l37.2-2l30.6,1l-2-20.5l3-39.5l-3-42.6l2-23.2h-32.8l-27,2
				l-34.4-2l-34.8,1L366.3,39l-43.4,3.3l-44.6-1.2l-23.9,1l-14.1-2L217,40.2l-47.8,3.2l-28.3-3.9l-21.2,2.3L74.1,20.7l13.7-14
				L50,17.4l13.5,26l-30.1-0.6L11,41.1l2,22.6L11,106.9z"/>
		</defs>
		<clipPath id="SVGID_00000056401279404419561890000007780894165502292371_">
			<use xlink:href="#SVGID_00000116234717886900465370000002932739207485520256_"  style="overflow:visible;"/>
		</clipPath>
	</g>
</g>
</svg>
