<?xml version="1.0" encoding="utf-8"?>
<!-- Generator: Adobe Illustrator 28.3.0, SVG Export Plug-In . SVG Version: 6.00 Build 0)  -->
<svg version="1.1" id="Vrstva_1" xmlns="http://www.w3.org/2000/svg" xmlns:xlink="http://www.w3.org/1999/xlink" x="0px" y="0px"
	 viewBox="0 0 546.1 178.5" style="enable-background:new 0 0 546.1 178.5;" xml:space="preserve">
<style type="text/css">
	.st0{fill:#CDC4C9;}
	.st1{fill:#FFFFFF;}
	.st2{fill:#F08792;}
	.st3{fill:#FFFFFF;stroke:#FFFFFF;stroke-width:0.5;stroke-miterlimit:10;}
	.st4{fill:#FFFFFF;stroke:#FFFFFF;stroke-width:0.25;stroke-miterlimit:10;}
	.st5{fill:#F1EAE4;}
	.st6{fill:none;stroke:#DACACB;stroke-width:0.25;stroke-miterlimit:10;}
	.st7{opacity:0.11;}
	.st8{opacity:0.38;fill:#BDB6B2;}
	.st9{opacity:0.3;}
	.st10{fill:#DACACB;}
	.st11{fill:#EDE7DE;}
	.st12{fill:none;}
	.st13{fill:#423429;}
	.st14{fill:#A87D52;}
</style>
<g>
	<path class="st5" d="M533.1,63.7l2-22.6l-22.5,1.7l-30.1,0.6l13.5-26L458.3,6.6l13.7,14l-45.6,21.1l-21.2-2.3l-28.3,3.9L329,40.2
		l-23.2-0.1l-14.1,2l-23.9-1l-44.6,1.2L179.8,39l-33.3,3.1l-34.8-1l-34.4,2l-27-2H17.5l2,23.2l-3,42.6l3,39.5l-2,20.5l30.6-1l37.2,2
		l37.2-2l30.9,2l29.6-2l46.6,1l41.6-1l25.2,2l34-3l25.2,3l46.6-1l43.5,2l42.2-4l17,2h30.2l-2-21.9l2-38.2L533.1,63.7z M30,93v0.3
		c-0.2-0.7-0.3-1.5-0.5-2.5s-0.2-2-0.3-3s-0.1-1.9-0.2-2.8c0-0.9-0.1-1.6-0.1-2.1c0-0.2,0-0.6,0.1-1.1c0-0.5,0.1-0.9,0.1-1.4
		c0-0.5,0.1-0.9,0.1-1.3c0-0.4,0.1-0.6,0.1-0.6c0.3,1.1,0.5,2.7,0.7,5c0.1,2.2,0.2,4.7,0.2,7.4C30.3,91.5,30.2,92.2,30,93z M29,73.6
		l0.5-3.4h0.3l0.1,2.5L29,73.6z M30.2,67.5l-0.8-1.5l0.5-1.3l0.7-4.1L30.2,67.5z M32.5,74.1c0-0.9,0-1.5,0-1.9
		c0-0.4,0.1-0.9,0.3-1.4c0.1,0.1,0.2,0.4,0.3,0.9c0.1,0.4,0.3,1,0.4,1.5c0.1,0.6,0.2,1.2,0.3,1.8c0.1,0.6,0.1,1.1,0.1,1.4
		c0,0.4,0,0.9-0.1,1.4c-0.1,0.5-0.2,1.2-0.3,2.2c-0.5-1.2-0.7-2.3-0.8-3.3C32.6,75.7,32.5,74.8,32.5,74.1z M33.4,86.1v-3.4l0.9,1.8
		L33.4,86.1z M364,58l-1.3,0.6l-1.5-0.9l1.1-0.6l1.7,0.4L364,58z M373.9,59.1l-2.7,0l0.3-1.2l3.2,0.2L373.9,59.1z M410.6,48l1.7,1
		l-3.5,0L410.6,48z M377.7,59l-0.7-0.4l3.9-0.4l2,0.8L377.7,59z M391.3,53.1l-1.4-0.6l-4.3-0.8l7.3,0.5L391.3,53.1z M395.7,53l0-0.4
		l2.6-0.1l1,1L395.7,53z M399.9,49.8c-0.9,0-1.6,0-2-0.1c-0.4,0-0.9-0.1-1.4-0.3c0.1-0.1,0.5-0.2,0.9-0.4c0.5-0.1,1-0.3,1.6-0.4
		c0.6-0.1,1.2-0.2,1.8-0.3c0.6-0.1,1.1-0.1,1.5-0.1c0.4,0,0.9,0,1.5,0.1c0.5,0.1,1.3,0.2,2.3,0.3c-1.3,0.5-2.4,0.8-3.5,0.9
		C401.5,49.7,400.6,49.8,399.9,49.8z M417.1,53.1c-1,0.1-2,0.2-3.1,0.3c-1,0.1-2,0.1-2.9,0.2c-0.9,0-1.6,0.1-2.2,0.1
		c-0.2,0-0.6,0-1.1-0.1c-0.5-0.1-1-0.1-1.5-0.2c-0.5-0.1-0.9-0.1-1.3-0.2c-0.4-0.1-0.6-0.1-0.7-0.1c1.1-0.3,2.8-0.6,5.2-0.7
		c2.3-0.1,4.9-0.2,7.7-0.2c0.6,0,1.4,0.1,2.2,0.3l0.3,0C419,52.8,418.1,53,417.1,53.1z M490.4,19.7l-0.6,1.6c-0.6,1.5-1.3,2.7-2,3.5
		c-0.3,0.4-1,0.7-1.9,1l-0.6,0.3L490.4,19.7z M480.7,26.9c-0.2,0.1-0.4,0.1-0.6,0c-0.2,0-0.4-0.1-0.6-0.2c-0.2-0.1-0.5-0.1-0.7-0.1
		c0.3-0.3,0.9-0.9,1.9-1.7c0.9-0.8,1.6-1.6,2.1-2.2c-0.1,0.3-0.2,0.8-0.4,1.6c-0.2,0.8-0.5,1.4-0.9,1.9
		C481.2,26.6,480.9,26.9,480.7,26.9z M481.8,29.8l0.2-0.7l1,0.3l-0.5,1.3L481.8,29.8z M493.9,158.3l-1.8-0.6l0.8-0.6l1.6,0.7
		L493.9,158.3z M500.1,160.5l-4.1,0.1l0.6-0.5c0-0.1,0.1-0.1,0.2-0.2c0-0.1,0.1-0.2,0.1-0.2c0.1-0.1,0.3-0.2,0.7-0.3
		c0.3-0.1,0.6-0.1,0.9-0.1c0.3,0,0.6,0,0.9,0c0,0,0,0,0,0c0.3,0,0.6,0.1,0.7,0.2l0.1,0.1L500.1,160.5z M504.4,159.5
		c-0.2,0.1-0.3,0.2-0.4,0.2c0,0,0,0,0,0c-0.1,0-0.3,0-0.5-0.2l-0.2-0.2l1.5-1.1l1.1,1L504.4,159.5z M502.9,150.6l-0.2,0.1l-0.6-0.7
		l0.2-0.2c0.6-0.4,1.3-0.9,2.2-1.4c0.9-0.5,1.9-1.1,3.2-1.7l0.5-0.2l0.5-0.6c0.1,0,0.3-0.1,0.6-0.3c0.3-0.1,0.6-0.3,0.9-0.5
		c0.3-0.2,0.6-0.3,1-0.4c0.3-0.2,0.6-0.2,0.8-0.3l0.6-0.1l-1.1,1.5c-1.9,1-3.5,1.9-4.8,2.6C505.3,149.2,504.1,149.9,502.9,150.6z
		 M514.7,153.5c-0.1,0.1-0.3,0.3-0.6,0.7c-0.3,0.4-0.5,0.6-0.7,0.7c-0.6,0.5-1.2,0.9-1.8,1.2c-0.4,0.2-0.7,0.3-0.9,0.3
		c-0.1,0-0.1,0-0.2,0c-0.1,0-0.2-0.1-0.2-0.3l0-0.1l0.1-0.1c0.1-0.2,0.3-0.4,0.6-0.6c0.3-0.3,0.7-0.6,1.2-1.1l0.8-0.7l-0.3,0.6
		c0.2-0.1,0.3-0.2,0.5-0.4c0.5-0.4,1-0.6,1.4-0.7l1-0.2L514.7,153.5z M518.1,146.5l-0.1-1.6l1.1-0.9l0.5,1.7L518.1,146.5z
		 M521.5,143l-0.6-2.4l1.8,0L521.5,143z M522.4,135.7l0.1-0.1c0.3-0.6,0.6-1.1,1.1-1.4l0.2-0.2l0.5,0.6l0,1.3l-1.3,0.3L522.4,135.7z
		 M525.5,158.8c-0.1-0.1-0.2-0.3-0.5-0.9c-0.2-0.5-0.5-1-0.7-1.5c-0.2-0.6-0.5-1.1-0.7-1.6c-0.3-0.7-0.3-0.9-0.3-1l0.1-1.5l0.3,0.1
		c0.2,0.1,0.4,0.3,0.6,0.8c0.2,0.4,0.4,0.8,0.6,1.3c0.2,0.5,0.4,1,0.6,1.5v0c0.2,0.5,0.3,0.8,0.4,1l0,0.1l0.1,2.4L525.5,158.8z"/>
</g>
</svg>
