<?xml version="1.0" encoding="utf-8"?>
<!-- Generator: Adobe Illustrator 28.3.0, SVG Export Plug-In . SVG Version: 6.00 Build 0)  -->
<svg version="1.1" id="Vrstva_1" xmlns="http://www.w3.org/2000/svg" xmlns:xlink="http://www.w3.org/1999/xlink" x="0px" y="0px"
	 viewBox="0 0 546.1 178.5" style="enable-background:new 0 0 546.1 178.5;" xml:space="preserve">
<style type="text/css">
	.st0{fill:#CDC4C9;}
	.st1{fill:#FFFFFF;}
	.st2{fill:#F08792;}
	.st3{fill:#FFFFFF;stroke:#FFFFFF;stroke-width:0.5;stroke-miterlimit:10;}
	.st4{fill:#FFFFFF;stroke:#FFFFFF;stroke-width:0.25;stroke-miterlimit:10;}
	.st5{fill:#F1EAE4;}
	.st6{fill:none;stroke:#DACACB;stroke-width:0.25;stroke-miterlimit:10;}
	.st7{opacity:0.11;}
	.st8{opacity:0.38;fill:#BDB6B2;}
	.st9{opacity:0.3;}
	.st10{fill:#DACACB;}
	.st11{fill:#EDE7DE;}
	.st12{fill:none;}
	.st13{fill:#423429;}
	.st14{fill:#A87D52;}
</style>
<g>
	<g>
		<path class="st5" d="M535.7,63.5l2-22.6l-22.5,1.7l-30.1-2.4L429,41.6l-21.2-2.3l-28.3,3.9L344.7,40l-23.2-0.1l-14.1,2l-13.1-0.5
			l-1.3-11.2L271.3,8l0.7,20.3l-6,13.1l-40.1,0.7l-43.4-3.3l-33.3,3.1l-34.8-1l-34.4,2l-27-2H20.1l2,23.2l-3,42.6l3,39.5l-2,20.5
			l30.6-1l37.2,2l37.2-2l30.9,2l29.6-2l46.6,1l41.6-1l25.2,2l34-3l25.2,3l46.6-1l43.5,2l42.2-4l17,2h30.2l-2-21.9l2-38.2L535.7,63.5
			z M32.1,93.6v0.3c-0.2-0.7-0.3-1.5-0.5-2.5c-0.1-1-0.2-2-0.3-3c-0.1-1-0.1-1.9-0.2-2.8c0-0.9-0.1-1.6-0.1-2.1c0-0.2,0-0.6,0.1-1.1
			c0-0.5,0.1-0.9,0.1-1.4c0-0.5,0.1-0.9,0.1-1.3c0-0.4,0.1-0.6,0.1-0.6c0.3,1.1,0.5,2.7,0.7,5s0.2,4.7,0.2,7.4
			C32.4,92.1,32.3,92.8,32.1,93.6z M31.1,74.2l0.5-3.4H32l0.1,2.5L31.1,74.2z M32.3,68l-0.8-1.5l0.5-1.3l0.7-4.1L32.3,68z
			 M34.6,74.7c0-0.9,0-1.5,0-1.9c0-0.4,0.1-0.9,0.3-1.4c0.1,0.1,0.2,0.4,0.3,0.9c0.1,0.4,0.3,1,0.4,1.5c0.1,0.6,0.2,1.2,0.3,1.8
			C36,76.2,36,76.7,36,77c0,0.4,0,0.9-0.1,1.4c-0.1,0.5-0.2,1.2-0.3,2.2c-0.5-1.2-0.7-2.3-0.8-3.3C34.6,76.3,34.6,75.4,34.6,74.7z
			 M35.5,86.7v-3.4l0.9,1.8L35.5,86.7z M284,30.9c-0.9-0.4-1.5-0.8-1.8-1.2c-0.6-0.9-1.1-2.1-1.6-3.7l-0.5-1.6l4.4,7L284,30.9z
			 M287,36.1l-0.4-1.3l1-0.2l0.1,0.7L287,36.1z M290.4,32.6c-0.2,0.1-0.4,0.1-0.6,0.1s-0.4,0-0.6-0.1c-0.2-0.1-0.4-0.4-0.7-0.8
			c-0.3-0.5-0.6-1.2-0.7-2c-0.1-0.8-0.2-1.3-0.2-1.6c0.4,0.7,1.1,1.5,1.9,2.4c0.8,0.9,1.4,1.6,1.7,1.9
			C290.9,32.5,290.7,32.5,290.4,32.6z M412.7,48.6l1.7,1l-3.5,0L412.7,48.6z M366.1,58.6l-1.3,0.6l-1.5-0.9l1.1-0.6l1.7,0.4
			L366.1,58.6z M376,59.7l-2.7,0l0.3-1.2l3.2,0.2L376,59.7z M379.7,59.6l-0.7-0.4l3.9-0.4l2,0.8L379.7,59.6z M393.4,53.6L392,53
			l-4.3-0.8l7.3,0.5L393.4,53.6z M397.8,53.5l0-0.4l2.6-0.1l1,1L397.8,53.5z M404.6,50.2c-1,0.1-1.9,0.2-2.7,0.2c-0.9,0-1.6,0-2-0.1
			c-0.4,0-0.9-0.1-1.4-0.3c0.1-0.1,0.5-0.2,0.9-0.4c0.5-0.1,1-0.3,1.6-0.4c0.6-0.1,1.2-0.2,1.8-0.3c0.6-0.1,1.1-0.1,1.5-0.1
			c0.4,0,0.9,0,1.5,0.1c0.5,0.1,1.3,0.2,2.3,0.3C406.8,49.8,405.7,50.1,404.6,50.2z M419.2,53.7c-1,0.1-2,0.2-3.1,0.3
			c-1,0.1-2,0.1-2.9,0.2c-0.9,0-1.6,0.1-2.2,0.1c-0.2,0-0.6,0-1.1-0.1c-0.5-0.1-1-0.1-1.5-0.2c-0.5-0.1-0.9-0.1-1.3-0.2
			c-0.4-0.1-0.6-0.1-0.7-0.1c1.1-0.3,2.8-0.6,5.2-0.7s4.9-0.2,7.7-0.2c0.6,0,1.4,0.1,2.2,0.3l0.3,0C421,53.4,420.2,53.6,419.2,53.7z
			 M495.9,158.6l-1.2-0.4l0.3-0.2l1.1,0.5L495.9,158.6z M501.9,160.9l-3.1,0.1c0,0,0.1-0.1,0.1-0.1c0,0,0.1-0.1,0.1-0.1
			c0-0.1,0.1-0.1,0.1-0.2c0.1-0.1,0.3-0.2,0.6-0.2c0.3-0.1,0.6-0.1,0.9-0.1c0.3,0,0.6,0,0.9,0c0.3,0,0.4,0,0.5,0.1L501.9,160.9z
			 M506.4,159.8c-0.3,0.2-0.5,0.2-0.6,0l1.1-0.8l0.6,0.5L506.4,159.8z M504.8,151l-0.3-0.3c0.6-0.4,1.3-0.9,2.2-1.4
			c0.9-0.5,1.9-1.1,3.1-1.7l0.5-0.3l0.5-0.5c0.1,0,0.3-0.1,0.6-0.3c0.3-0.1,0.6-0.3,0.9-0.4c0.3-0.2,0.6-0.3,0.9-0.4
			c0.3-0.1,0.6-0.2,0.7-0.3l-0.6,0.9c-1.9,1-3.5,1.9-4.9,2.6C507.2,149.6,506,150.3,504.8,151z M515.9,154.6
			c-0.3,0.3-0.5,0.6-0.7,0.7c-0.6,0.5-1.2,0.9-1.8,1.2c-0.6,0.3-0.9,0.4-1,0.2c0.1-0.2,0.3-0.4,0.6-0.6c0.2-0.3,0.6-0.6,1.2-1
			l-0.2,0.4c0.3-0.1,0.7-0.4,1.2-0.8c0.5-0.4,0.9-0.6,1.3-0.7C516.4,154,516.2,154.3,515.9,154.6z M520.4,146.6l-0.1-1.1l0.7-0.6
			l0.3,1.2L520.4,146.6z M523.7,142.8l-0.4-1.4l1.1,0L523.7,142.8z M524.8,136.3c0.2-0.6,0.6-1,1-1.3l0.3,0.3l0,1.1l-1,0.2
			L524.8,136.3z M527.3,158.4c-0.2-0.5-0.5-1-0.7-1.5s-0.5-1.1-0.7-1.6c-0.2-0.5-0.3-0.8-0.3-0.9l0.1-1.2c0.1,0,0.3,0.2,0.5,0.6
			c0.2,0.4,0.4,0.8,0.6,1.3c0.2,0.5,0.4,1,0.6,1.5c0.2,0.5,0.3,0.8,0.4,1l0.1,1.6C527.7,159.2,527.6,158.9,527.3,158.4z"/>
	</g>
</g>
</svg>
