<?xml version="1.0" encoding="utf-8"?>
<!-- Generator: Adobe Illustrator 28.3.0, SVG Export Plug-In . SVG Version: 6.00 Build 0)  -->
<svg version="1.1" id="Vrstva_1" xmlns="http://www.w3.org/2000/svg" xmlns:xlink="http://www.w3.org/1999/xlink" x="0px" y="0px"
	 viewBox="0 0 22.3 23.4" style="enable-background:new 0 0 22.3 23.4;" xml:space="preserve">
<style type="text/css">
	.st0{fill:#CDC4C9;}
	.st1{fill:#FFFFFF;}
	.st2{fill:#F08792;}
	.st3{fill:#FFFFFF;stroke:#FFFFFF;stroke-width:0.5;stroke-miterlimit:10;}
	.st4{fill:#FFFFFF;stroke:#FFFFFF;stroke-width:0.25;stroke-miterlimit:10;}
	.st5{fill:#F1EAE4;}
	.st6{fill:none;stroke:#DACACB;stroke-width:0.25;stroke-miterlimit:10;}
	.st7{opacity:0.11;}
	.st8{opacity:0.38;fill:#BDB6B2;}
	.st9{opacity:0.3;}
	.st10{fill:#DACACB;}
	.st11{fill:#EDE7DE;}
	.st12{fill:none;}
	.st13{fill:#423429;}
	.st14{fill:#A87D52;}
</style>
<path class="st1" d="M9.4,0c-0.6,0-1,0.4-1.1,0.9L7.9,3C6.9,3.3,6,3.8,5.2,4.5L3.3,3.8c-0.5-0.2-1.1,0-1.4,0.5L0.2,7.4
	C-0.1,7.9,0,8.5,0.4,8.9l1.5,1.3c-0.1,0.5-0.1,1-0.1,1.5s0.1,1,0.1,1.5l-1.5,1.3c-0.4,0.4-0.5,1-0.2,1.5l1.8,3.1
	c0.3,0.5,0.9,0.7,1.4,0.5l1.9-0.7c0.8,0.6,1.7,1.1,2.6,1.5l0.4,2c0.1,0.6,0.6,0.9,1.1,0.9h3.5c0.6,0,1-0.4,1.1-0.9l0.4-2
	c1-0.4,1.8-0.9,2.6-1.5l1.9,0.7c0.5,0.2,1.1,0,1.4-0.5l1.8-3.1c0.3-0.5,0.2-1.1-0.2-1.5l-1.5-1.3c0.1-0.5,0.1-1,0.1-1.5
	s-0.1-1-0.1-1.5l1.5-1.3c0.4-0.4,0.5-1,0.2-1.5l-1.8-3.1c-0.3-0.5-0.9-0.7-1.4-0.5l-1.9,0.7c-0.8-0.6-1.7-1.1-2.6-1.5l-0.4-2
	C14,0.4,13.5,0,12.9,0H9.4z M11.2,7c2.6,0,4.7,2.1,4.7,4.7s-2.1,4.7-4.7,4.7s-4.7-2.1-4.7-4.7S8.6,7,11.2,7z"/>
</svg>
