<?xml version="1.0" encoding="utf-8"?>
<!-- Generator: Adobe Illustrator 28.3.0, SVG Export Plug-In . SVG Version: 6.00 Build 0)  -->
<svg version="1.1" id="Vrstva_1" xmlns="http://www.w3.org/2000/svg" xmlns:xlink="http://www.w3.org/1999/xlink" x="0px" y="0px"
	 viewBox="0 0 69.3 56.6" style="enable-background:new 0 0 69.3 56.6;" xml:space="preserve">
<style type="text/css">
	.st0{fill:#CDC4C9;}
	.st1{fill:#FFFFFF;}
	.st2{fill:#F08792;}
	.st3{fill:#FFFFFF;stroke:#FFFFFF;stroke-width:0.5;stroke-miterlimit:10;}
	.st4{fill:#FFFFFF;stroke:#FFFFFF;stroke-width:0.25;stroke-miterlimit:10;}
	.st5{fill:#F1EAE4;}
	.st6{fill:none;stroke:#DACACB;stroke-width:0.25;stroke-miterlimit:10;}
	.st7{opacity:0.11;}
	.st8{opacity:0.38;fill:#BDB6B2;}
	.st9{opacity:0.3;}
	.st10{fill:#DACACB;}
	.st11{fill:#EDE7DE;}
	.st12{fill:none;}
	.st13{fill:#423429;}
	.st14{fill:#A87D52;}
</style>
<g>
	<path class="st0" d="M65.2,56.6H4c-2.2,0-4-1.8-4-4L0,4c0-2.2,1.8-4,4-4l61.2,0c2.2,0,4,1.8,4,4v48.5
		C69.3,54.8,67.5,56.6,65.2,56.6z"/>
	<path class="st1" d="M10.2,4.4C10,4.7,9.8,4.9,9.6,5.1C9.4,5.2,9.3,5.3,9.1,5.3c0-0.2,0.1-0.4,0.2-0.6c0.1-0.2,0.3-0.5,0.5-0.7
		c0.2-0.2,0.4-0.4,0.6-0.6C10.7,3.1,10.9,3,11,2.9c0,0.2-0.1,0.5-0.3,0.7C10.6,3.9,10.4,4.1,10.2,4.4z"/>
	<polygon class="st1" points="4.1,15.9 4.6,13.5 5.4,13.8 4.6,16.5 	"/>
	<path class="st1" d="M6.5,16c0,0,0,0-0.1-0.1c0-0.1,0-0.5,0-1c0-0.2,0.1-0.6,0.2-1.1c0,0,0-0.2,0-0.4c0-0.2,0-0.5,0-0.7
		c0-0.2,0-0.5,0-0.7c0-0.2,0-0.3,0-0.4l-0.1-0.4l-0.6,0.1c0-0.1,0-0.2,0-0.3c0-0.1,0-0.2,0-0.3c0-0.2,0.1-0.4,0.3-0.6
		C6.1,10,6.3,9.9,6.5,9.8l0.3-1.1c0.1-0.6,0.2-1,0.4-1.3c0.2-0.3,0.3-0.5,0.4-0.8L8,8.4l-1.5,7.2C6.5,15.8,6.5,15.9,6.5,16z"/>
	<path class="st1" d="M9.2,10.2c0.1-0.5,0.2-1,0.4-1.5c0.2-0.5,0.4-1,0.6-1.7L11,5.8c-0.1,1.3-0.4,2.3-0.8,3
		C9.8,9.6,9.5,10,9.2,10.2z"/>
	<path class="st1" d="M58.4,51.7c0.4-0.5,1-1.3,1.9-2.2l-0.1,1.7c-0.1,0-0.2,0.1-0.4,0.4c-0.2,0.3-0.4,0.5-0.6,0.8
		c-0.2,0.3-0.4,0.6-0.7,0.8c-0.2,0.3-0.4,0.4-0.6,0.4l-0.6-0.5C57.6,52.7,58,52.2,58.4,51.7z"/>
	<path class="st1" d="M66,51.1c0,0.2-0.2,0.5-0.7,0.9c-0.4,0.4-0.7,0.7-0.8,0.8l-1.5,0.2c-0.4,0.1-0.7,0.1-0.8,0.1
		c-0.2,0-0.4,0-0.6-0.1l-0.1-0.5l4-1.6L66,51.1z"/>
	<path class="st1" d="M64.3,43.5c0.2-0.4,0.4-0.6,0.5-0.6l0.4,0.1c0,0.9-0.4,2.2-1.1,4l-0.5,1.2l-0.8,0l-0.1-0.7
		c0.1-0.4,0.3-0.8,0.4-1.3c0.2-0.5,0.4-1,0.6-1.5C63.9,44.3,64.1,43.8,64.3,43.5z"/>
</g>
<path class="st1" d="M19.4,10.6c-2.7,2.2,0.3,8.6,2.9,11.7c2.1,2.4,5.9,7,6.1,7.3l0,0c0,0-4,4.6-6.1,7.1c-2.7,3.1-5.6,9.5-2.9,11.7
	c6.3,5.3,17.9-18.9,17.9-18.9C37.3,29.6,25.7,5.4,19.4,10.6z"/>
<path class="st1" d="M36.8,10.6c-2.7,2.2,0.3,8.6,2.9,11.7c2.1,2.4,5.9,7,6.1,7.3l0,0c0,0-4,4.6-6.1,7.1c-2.7,3.1-5.6,9.5-2.9,11.7
	c6.3,5.3,17.9-18.9,17.9-18.9C54.6,29.6,43,5.4,36.8,10.6z"/>
</svg>
