<?xml version="1.0" encoding="utf-8"?>
<!-- Generator: Adobe Illustrator 28.3.0, SVG Export Plug-In . SVG Version: 6.00 Build 0)  -->
<svg version="1.1" id="Vrstva_1" xmlns="http://www.w3.org/2000/svg" xmlns:xlink="http://www.w3.org/1999/xlink" x="0px" y="0px"
	 viewBox="0 0 1083.7 293.6" style="enable-background:new 0 0 1083.7 293.6;" xml:space="preserve">
<style type="text/css">
	.st0{fill:#FFFFFF;}
</style>
<g>
	<path class="st0" d="M0,15.6c41.7,0,41.7,30,83.4,30c41.7,0,41.7-30,83.4-30c41.7,0,41.7,30,83.4,30c41.7,0,41.7-30,83.4-30
		c41.7,0,41.7,30,83.4,30c41.7,0,41.7-30,83.4-30c41.7,0,41.7,30,83.4,30c41.7,0,41.7-30,83.4-30c41.7,0,41.7,30,83.4,30
		c41.7,0,41.7-30,83.4-30c41.7,0,41.7,30,83.4,30c41.7,0,41.7-30,83.4-30c41.7,0,41.7,30,83.4,30"/>
	<path class="st0" d="M0,15.6c41.7,0,41.7,30,83.4,30c41.7,0,41.7-30,83.4-30c41.7,0,41.7,30,83.4,30c41.7,0,41.7-30,83.4-30
		c41.7,0,41.7,30,83.4,30c41.7,0,41.7-30,83.4-30c41.7,0,41.7,30,83.4,30c41.7,0,41.7-30,83.4-30c41.7,0,41.7,30,83.4,30
		c41.7,0,41.7-30,83.4-30c41.7,0,41.7,30,83.4,30c41.7,0,41.7-30,83.4-30c41.7,0,41.7,30,83.4,30v248H0V15.6z"/>
</g>
</svg>
