<?xml version="1.0" encoding="UTF-8"?>
<svg id="Vrstva_1" data-name="Vrstva 1" xmlns="http://www.w3.org/2000/svg" viewBox="0 0 439.26 380.73">
  <defs>
    <style>
      .cls-1 {
        fill: #fff;
        stroke-width: 0px;
      }
    </style>
  </defs>
  <g>
    <path class="cls-1" d="M127.51,36.88c1.11,1.84,2.06,3.71,2.86,5.58.8,1.88,1.48,3.69,2.03,5.44s.97,3.4,1.24,4.93c.28,1.54.41,2.89.41,4.06,0,3.63-.17,6.99-.51,10.1-.34,3.11-.91,6.01-1.71,8.71-.31,1.11-.68,2.43-1.11,3.97-.43,1.54-1,3.27-1.71,5.21-.71,1.94-1.58,4.06-2.63,6.36-1.05,2.31-2.34,4.81-3.87,7.52-2.46,4.12-7.75,8.85-15.86,14.2l.46-.09-.74.46-2.31,1.38.09-.09c-1.23.86-2.66,1.6-4.29,2.21-1.63.62-3.32,1.14-5.07,1.57-1.75.43-3.47.75-5.16.97-1.69.22-3.21.32-4.56.32-2.89,0-5.89-.08-8.99-.23-3.11-.15-6.41-.69-9.91-1.61-4.06-1.11-7.41-2.35-10.05-3.73-2.64-1.38-4.58-2.63-5.81-3.73h.09c-.98-.86-1.88-1.69-2.67-2.49-.8-.8-1.51-1.63-2.12-2.49l-3.23-4.52c-.68-.68-1.34-1.29-1.98-1.84s-1.22-1.04-1.71-1.48c-1.42-.8-2.58-2.32-3.5-4.56-.92-2.24-1.66-4.63-2.21-7.15-.55-2.52-.96-4.9-1.2-7.15-.25-2.24-.37-3.8-.37-4.66,0-2.4.01-4.35.05-5.86.03-1.51.08-2.84.14-4.01,0-.92.03-1.75.09-2.49.06-.74.14-1.46.23-2.17.09-.71.21-1.41.37-2.12.15-.71.32-1.52.51-2.44l.55-2.4c.18-.86.34-1.74.46-2.63.12-.89.18-1.67.18-2.35l.92-1.2c0-2.52.41-4.7,1.24-6.55s1.92-3.35,3.27-4.52l-.92.46c.31-.86.61-1.75.92-2.67.31-.92.61-1.81.92-2.67.12-.43.98-1.29,2.58-2.58,1.6-1.29,3.56-2.98,5.9-5.07,1.72-1.48,3.14-2.87,4.24-4.2,1.11-1.32,1.94-2.5,2.49-3.55l5.99-5.07c1.04-.8,2.09-1.52,3.14-2.17,1.04-.65,2.17-1.18,3.37-1.61,1.2-.43,2.52-.75,3.97-.97,1.44-.21,3.09-.32,4.93-.32.68,0,1.71.03,3.09.09,1.38.06,2.47.15,3.27.28.49.31,1.12.51,1.89.6.77.09,1.57.17,2.4.23.83.06,1.61.12,2.35.18.74.06,1.29.18,1.66.37l.28.09c1.35.12,2.44.28,3.27.46s1.66.46,2.49.83,1.75.88,2.77,1.52,2.38,1.49,4.1,2.54h-.09c2.15,1.23,4.5,2.75,7.05,4.56,2.55,1.81,5.21,4.23,7.98,7.24l4.8,5.35c.49.98.92,2.11,1.29,3.37.37,1.26,1.01,2.69,1.94,4.29ZM39.72,73.95c0,.92.49,1.45,1.48,1.57l.46-4.43c-1.29.98-1.94,1.94-1.94,2.86ZM40.92,80.69c.06.74.21,1.35.46,1.84.24.49.61.77,1.11.83,0-.68-.11-1.52-.32-2.54-.22-1.01-.45-2.07-.69-3.18-.37,1.29-.55,2.31-.55,3.04ZM44.7,41.22c-.13,0-.31.23-.55.69-.25.46-.49,1-.74,1.61-.25.62-.46,1.2-.65,1.75s-.28.92-.28,1.11l4.06-4.43-1.84-.74ZM44.14,86.77l-.46-.09-.18,1.2.65-1.11ZM47.74,92.49c.24-.49.41-.97.51-1.43s.14-.88.14-1.24c0-1.11-.18-1.94-.55-2.49s-.8-.86-1.29-.92c-.98.62-1.48,1.26-1.48,1.94,0,.98.23,1.84.69,2.58s1.12,1.26,1.98,1.57ZM50.88,97.38l-1.57-3.5-.18.55,1.01,3.97.74-1.01ZM51.06,31.9c0,.18.09.4.28.65.06.18.15.4.28.65.55-.86.97-1.57,1.24-2.12s.51-1.04.69-1.48l-.74-.92c-1.17,1.17-1.75,2.24-1.75,3.23ZM57.7,104.02l-3.04-3.6-1.38,1.75,2.86,3.23,1.57-1.38ZM96.25,98.3c.68-3.32,1.24-6.01,1.71-8.07.46-2.06.83-3.75,1.11-5.07.28-1.32.47-2.44.6-3.37.12-.92.2-1.91.23-2.95.03-1.04.03-2.31,0-3.78-.03-1.48-.05-3.44-.05-5.9,0-.55-.08-1.44-.23-2.67-.15-1.23-.31-2.54-.46-3.92-.15-1.38-.31-2.7-.46-3.97-.15-1.26-.23-2.2-.23-2.81,0-.68.06-1.64.18-2.9.12-1.26.18-2.23.18-2.9,0-3.07-.71-7.28-2.12-12.63l.28-3.41c-.68-3.01-1.37-5.79-2.07-8.35-.71-2.55-1.51-4.76-2.4-6.64-.89-1.87-1.94-3.35-3.14-4.43-1.2-1.08-2.6-1.61-4.2-1.61-.13,0-.31.02-.55.05-.25.03-.55.05-.92.05-.31,0-.66-.01-1.06-.05-.4-.03-.85-.08-1.34-.14-1.91.25-3.58.63-5.03,1.15-1.45.52-2.75,1.31-3.92,2.35-1.17,1.05-2.25,2.44-3.23,4.2-.98,1.75-1.97,3.98-2.95,6.69l-.92,4.98v.28c0,.12-.06,1.05-.18,2.77-.13,1.72-.26,3.84-.41,6.36-.15,2.52-.32,5.23-.51,8.11-.18,2.89-.36,5.55-.51,7.98-.15,2.43-.36,5.27-.6,8.53,0,3.2.28,6.52.83,9.96.55,3.44,1.35,6.86,2.4,10.24.55,1.66,1.06,3.38,1.52,5.16.46,1.78.91,3.47,1.34,5.07.43,1.6.89,3.03,1.38,4.29.49,1.26,1.04,2.2,1.66,2.81l5.53,7.28,4.33,1.48c1.97-.37,3.63-.92,4.98-1.66,1.35-.74,2.49-1.55,3.41-2.44.92-.89,1.66-1.83,2.21-2.81.55-.98,1.01-1.91,1.38-2.77l2.21-4.52ZM76.97,115.54c-.37-.49-.88-.98-1.52-1.48-.65-.49-1.55-.98-2.72-1.48.55,1.97,1.72,2.95,3.5,2.95h.74ZM101.69,107.06c.68,0,1.27-.17,1.8-.51.52-.34.81-.81.88-1.43l-1.01-.92c-.8,0-1.32.83-1.57,2.49-.06.12-.09.25-.09.37ZM102.33,21.02c.06.43.24.92.55,1.48.31.55.66,1.09,1.06,1.61.4.52.8.95,1.2,1.29.4.34.75.51,1.06.51,0-.37-.14-.8-.41-1.29-.28-.49-.62-.97-1.01-1.43-.4-.46-.82-.89-1.24-1.29-.43-.4-.83-.69-1.2-.88ZM102.33,26.83c.18,2.58.7,4.61,1.57,6.09.86,1.48,1.53,2.37,2.03,2.67-.18-.98-.45-1.97-.78-2.95-.34-.98-.75-2.09-1.24-3.32l-1.57-2.49ZM111.74,37.71l1.11.18c0-.12.03-.31.09-.55.06-.25.09-.43.09-.55,0-.43-.17-.83-.51-1.2-.34-.37-.72-.58-1.15-.65l-.55-2.21c-.18-1.11-.48-1.95-.88-2.54-.4-.58-.69-1.09-.88-1.52l-.74,3.41,2.95,14.29c.06.49.11.78.14.88.03.09.08,0,.14-.28.06-.28.09-.94.09-1.98,0-.49-.13-1.2-.37-2.12,0-.06.01-.32.05-.78.03-.46.06-.94.09-1.43.03-.49.06-.95.09-1.38.03-.43.05-.68.05-.74l.18-.83ZM111,54.96c0-.12.06-.34.18-.65.12-.31.18-.49.18-.55v-.37l-.18-.37-.55-4.8-1.57.55,1.94,6.18ZM111.74,65.65c0-.68-.13-1.52-.37-2.54-.25-1.01-.37-1.64-.37-1.89.49-.98.74-1.75.74-2.31,0-.31-.14-.75-.41-1.34-.28-.58-.45-1.03-.51-1.34-.49.68-.82,1.23-.97,1.66-.15.43-.23.92-.23,1.48s.06,1.08.18,1.57c.12.49.24.86.37,1.11l-.18,7.1-.37,8.76,1.2,1.01c0-.74.03-1.66.09-2.77.06-1.11.18-2.4.37-3.87.18-1.54.31-2.84.37-3.92.06-1.08.09-1.98.09-2.72ZM115.98,85.3l-.55-2.31-2.4,5.99-.28,1.84,3.23-5.53ZM116.16,47.03l-1.01-4.8-1.48.74,1.48,5.26,1.01-1.2ZM118.93,80.78c1.6-2.21,2.58-5.01,2.95-8.39l-2.77,2.21-.28,1.01c-.43,1.48-.65,2.71-.65,3.69,0,.86.24,1.35.74,1.48ZM122.53,70.73c0-.49-.08-1.11-.23-1.84-.15-.74-.48-1.11-.97-1.11h-.83v2.12l2.03.83ZM122.53,59.94c0-.18-.08-.51-.23-.97-.15-.46-.23-.75-.23-.88-.8,0-1.2.62-1.2,1.84,0,1.41.4,2.71,1.2,3.87,0-.37.08-.78.23-1.24.15-.46.23-.81.23-1.06v-1.57Z"/>
    <path class="cls-1" d="M209.76,117.6c1.17.12,2.15.57,2.95,1.34.8.77,1.2,1.65,1.2,2.63-.13.86-.51,1.49-1.15,1.89-.65.4-1.49.6-2.54.6-.86,0-1.91-.15-3.14-.46h-3.69c-.06,0-.37.43-.92,1.29-.43.18-.66.32-.69.41-.03.09-.14.14-.32.14-.37,0-.63-.15-.78-.46-.15-.31-.48-.71-.97-1.2-.62,0-1.29.03-2.03.09-.74.06-1.26.09-1.57.09-4.98,0-8.64-.23-10.97-.69-2.34-.46-3.5-1.67-3.5-3.64,0-.8.38-1.38,1.15-1.75.77-.37,2.23-.55,4.38-.55.24,0,.44-.01.6-.05.15-.03.38-.01.69.05v-6.55c0-.98-.05-1.69-.14-2.12-.09-.43-.14-.8-.14-1.11,0-.61.03-1.6.09-2.95.06-1.35.14-39.93.23-41.44.09-1.51.17-2.95.23-4.33.06-1.38.09-2.44.09-3.18,0-.8-.03-1.69-.09-2.67-.06-.98-.15-1.97-.28-2.95-.13-.98-.25-1.87-.37-2.67-.13-.8-.22-1.38-.28-1.75l-.18-2.21c-.12-3.81-.29-7.22-.5-10.24-.21-3.01-.58-5.55-1.1-7.61-.52-2.06-1.24-3.63-2.16-4.7-.92-1.08-2.11-1.61-3.58-1.61-1.1,0-2.28.23-3.53.69s-2.42,1.11-3.49,1.94-1.97,1.78-2.71,2.86c-.74,1.08-1.13,2.2-1.2,3.37l-.27,3.14c-.43,4.49-.78,8.62-1.06,12.4-.27,3.78-.41,6.75-.41,8.9,0,.92.01,2.29.05,4.1.03,1.81.05,3.71.05,5.67s.01,3.83.05,5.58c.03,1.75.05,3.03.05,3.83v3.46c0,.95-.02,1.8-.05,2.54-.03.74-.06,1.4-.09,1.98-.03.58-.05,1.15-.05,1.71.18.43.47.77.88,1.01.4.25.78.49,1.15.74.37.25.7.54,1.01.88.31.34.46.82.46,1.43,0,.68-.51,1.18-1.52,1.52-1.01.34-2.29.51-3.83.51-.37,0-.84-.03-1.39-.09-.56-.06-1.11-.12-1.67-.18-.55-.06-1.03-.12-1.43-.18-.4-.06-.67-.09-.79-.09-2.34-.12-4.89-.23-7.64-.32s-5.36-.14-7.82-.14h-2.12c-1.6,0-2.6-.15-3-.46-.4-.31-.6-.68-.6-1.11,0-.18.01-.35.05-.51.03-.15.05-.29.05-.41,0-.98.12-1.69.37-2.12.24-.43.63-.74,1.15-.92.52-.18,1.18-.29,1.98-.32.8-.03,1.72-.11,2.77-.23,0-.31.03-.83.09-1.57.06-.74.11-1.52.14-2.35.03-.83.08-1.66.14-2.49.06-.83.09-1.52.09-2.07l.46-2.67c-.13-2.7-.25-5.47-.37-8.3-.13-2.83-.18-5.41-.18-7.75,0-1.48.06-3.53.18-6.18.12-2.64.28-5.38.46-8.21.18-2.83.37-5.53.55-8.11s.34-4.58.46-5.99c-.49.12-1.23.18-2.21.18-1.05,0-2.09-.12-3.14-.37-1.05-.25-1.57-.77-1.57-1.57s.74-2.18,2.21-4.15c.55-.68,1.49-1.37,2.81-2.07,1.32-.71,2.85-1.77,4.58-3.18.62-.55,1.23-1.11,1.85-1.66.62-.55,1.33-1.17,2.13-1.84.8-.68,1.76-1.4,2.87-2.17,1.11-.77,2.5-1.64,4.17-2.63,1.24-.37,2.08-.58,2.55-.65.46-.06.85-.09,1.16-.09,1.11,0,2.02.12,2.73.37.71.25,1.06.89,1.06,1.94,0,.86-.05,1.86-.14,3-.09,1.14-.14,2.41-.14,3.83,0,.18-.02.37-.05.55-.03.18-.05.37-.05.55,3.74-1.72,6.62-2.58,8.65-2.58s4.09.11,6.03.32c1.93.22,3.68.49,5.24.83,1.56.34,2.9.71,4,1.11,1.1.4,1.93.75,2.49,1.06,4.23,2.58,7.6,5.64,10.12,9.18,2.51,3.54,3.93,7.42,4.23,11.67.18,2.77.34,5.61.46,8.53.12,2.92.18,5.76.18,8.53,0,.49-.03,1.23-.09,2.21-.06.98-.14,2.01-.23,3.09-.09,1.08-.17,2.11-.23,3.09-.06.98-.09,1.69-.09,2.12,0,1.78.03,41.19.09,43.93.06,2.74.18,6.01.37,9.82ZM152.31,72.25l-1.84.28v.28l.92.46h.92v-1.01ZM151.85,79.16l-.46-2.12-.92,1.84v2.21l1.11-.28.28-1.66ZM161.35,75.75l-1.38-3.78-.18,2.03.37,2.77-.09.92,1.29-1.94ZM161.81,40.62c0-.49-.05-.97-.14-1.43s-.29-.94-.6-1.43v-.74l-1.01.46c0,.49.06,1.26.18,2.31.12,1.05.18,1.81.18,2.31,0,.74-.03,1.26-.09,1.57-.06.31-.15.58-.28.83l.18.18c.24,0,.57-.4.97-1.2.4-.8.6-1.75.6-2.86ZM161.99,51.78c-.13.18-.26.6-.41,1.24-.15.65-.32,1.35-.51,2.12-.18.77-.34,1.51-.46,2.21-.13.71-.18,1.18-.18,1.43l-.18,7.38c0,.62.01,1.08.05,1.38.03.31.14.58.32.83.06-.18.11-.38.14-.6.03-.21.05-.57.05-1.06l1.2-14.94ZM162.82,27.25l-.37-.92-1.01.28c-.31.25-.55.68-.74,1.29-.18.62-.28,1.2-.28,1.75l.65,1.75,1.75-4.15ZM193.44,22.73l-2.4-1.11c.49.62.83,1.05,1.01,1.29.18.25.46.52.83.83l.55-1.01ZM201.37,117.7c-.37-.25-.68-.83-.92-1.75-.25-.92-.46-1.91-.65-2.95-.18-1.04-.34-2-.46-2.86-.13-.86-.25-1.38-.37-1.57,0,2.34.03,4.09.09,5.26.06,1.17.15,2.21.28,3.14l.65.74h1.38ZM200.91,61.83c.37-.98.55-1.87.55-2.67,0-.31-.09-.71-.28-1.2-.18-.49-.28-1.04-.28-1.66-.49.49-.8.85-.92,1.06-.13.22-.18.48-.18.78,0,.55.15,1.23.46,2.03.31.8.52,1.35.65,1.66ZM200.45,54.17c.31.12.55-.31.74-1.29.18-.98.28-2.03.28-3.14,0-.31-.06-.78-.18-1.43-.13-.65-.18-1.12-.18-1.43-.25.49-.39,1.2-.41,2.12-.03.92-.11,1.63-.23,2.12l-.28-.55c0,1.05.03,1.83.09,2.35.06.52.12.94.18,1.24Z"/>
    <path class="cls-1" d="M240.28,45.78c0,1.23-.02,41.63-.05,42.95-.03,1.32-.05,2.63-.05,3.92,0,.12.06.89.18,2.31.12,1.41.43,3.47.92,6.18l1.29,7.84c.55,3.26,1.29,5.55,2.21,6.87.92,1.32,1.63,2.01,2.12,2.07,2.15.68,3.64,1.08,4.47,1.2.83.12,1.3.18,1.43.18.24,0,.58-.05,1.01-.14.43-.09.95-.29,1.57-.6l2.77-1.29c.12-.12.32-.34.6-.65.28-.31.54-.61.78-.92.06-.06.34-.66.83-1.8.49-1.14,1.03-2.6,1.61-4.38.58-1.78,1.12-3.8,1.61-6.04.49-2.24.74-4.53.74-6.87.06-.92.09-1.74.09-2.44s.12-1.31.37-1.8c.24-.49.63-.86,1.15-1.11.52-.25,1.3-.37,2.35-.37.92,0,1.74.23,2.44.69.7.46,1.06,1.22,1.06,2.26,0,.18-.02.37-.05.55-.03.18-.05.34-.05.46.31,1.11.49,1.97.55,2.58.06.62.09,1.14.09,1.57,0,.74-.11,1.8-.32,3.18-.22,1.38-.51,2.86-.88,4.43s-.82,3.11-1.34,4.61c-.52,1.51-1.09,2.72-1.71,3.64-1.23,1.84-2.07,3.18-2.54,4.01s-.88,1.45-1.24,1.84c-.37.4-.82.77-1.34,1.11-.52.34-1.46.94-2.81,1.8-.8.49-1.74.74-2.81.74s-2.44.34-4.1,1.01h-7.75c-.49-.18-.98-.35-1.48-.51-.49-.15-1.17-.23-2.03-.23l-3.78-.55c-1.42-.31-2.63-.72-3.64-1.24-1.01-.52-1.68-1.12-1.98-1.8-1.23-1.23-2.55-2.66-3.97-4.29-1.42-1.63-2.74-3.43-3.97-5.39-1.66-2.58-2.64-4.75-2.95-6.5-.31-1.75-.49-3.12-.55-4.1,0-.43-.09-1.38-.28-2.86s-.37-42.21-.55-43.96-.36-3.49-.51-5.21c-.15-1.72-.23-3.07-.23-4.06,0-4.43.54-8.73,1.61-12.91,1.07-4.18,2.72-7.91,4.93-11.2,2.21-3.29,5.03-5.92,8.44-7.88,3.41-1.97,7.45-2.95,12.13-2.95,3.26,0,6.33.58,9.22,1.75,2.89,1.17,5.44,2.64,7.65,4.43,2.21,1.78,4.02,3.71,5.44,5.76,1.41,2.06,2.31,4.01,2.67,5.86l1.38,6.82c.24,1.91.38,3.37.41,4.38.03,1.01.05,1.77.05,2.26,0,.74-.05,1.37-.14,1.89-.09.52-.32.95-.69,1.29-.37.34-.97.57-1.8.69-.83.12-1.98.18-3.46.18-1.6-.25-3-.4-4.2-.46-1.2-.06-2.32-.09-3.37-.09-2.95,0-5.86.03-8.71.09-2.86.06-5.36.22-7.52.46l-3.41.74ZM226.18,104.64c-.13-.06-.34-.41-.65-1.06-.31-.65-.59-.97-.83-.97v.92l.28.55c.43.74.68,1.26.74,1.57h.55l-.09-1.01ZM225.44,37.85h.28c.31,0,.51-.05.6-.14s.23-.66.41-1.71h-1.29v1.84ZM228.3,97.72c0-.92-.13-1.86-.37-2.81-.25-.95-.55-1.64-.92-2.07h-.37c0,.12-.03.34-.09.65-.06.31-.09.52-.09.65,0,1.23.31,2.8.92,4.7l.55,1.66.37.09v-2.86ZM227.37,39.23c-.18.31-.32.95-.41,1.94-.09.98-.17,1.78-.23,2.4.06,0,.2.05.41.14.21.09.35.14.41.14.18,0,.32-.14.41-.41s.17-.6.23-.97c.06-.37.11-.75.14-1.15.03-.4.11-.72.23-.97l-.28-1.11h-.92ZM230.97,107.31c-.98-2.09-1.66-3.26-2.03-3.5.12,1.05.38,2.01.78,2.9.4.89.81,1.43,1.24,1.61v-1.01ZM232.35,18.76l-.55.74.28,1.75.55-.18-.28-2.31ZM238.62,118.84l-.18.18.37,1.2h.92l-1.11-1.38ZM254.02,34.16c0-.68-.02-1.54-.05-2.58-.03-1.04-.09-2.17-.18-3.37s-.23-2.44-.41-3.73-.46-2.55-.83-3.78c-.43-1.35-.77-2.41-1.01-3.18-.25-.77-.52-1.37-.83-1.8-.31-.43-.66-.71-1.06-.83-.4-.12-.97-.18-1.71-.18-1.11.06-1.97.46-2.58,1.2-.62.74-1.09,1.61-1.43,2.63-.34,1.01-.63,2.11-.88,3.27-.25,1.17-.59,2.21-1.01,3.14-.62,1.29-1.08,2.81-1.38,4.56-.31,1.75-.46,3.18-.46,4.29v6.46c2.15-.25,3.93-.4,5.35-.46,1.41-.06,2.92-.09,4.52-.09h3.97v-5.53ZM259.74,37.02c0-.61-.17-1.27-.51-1.98-.34-.71-.57-1.18-.69-1.43,0,.8-.09,1.8-.28,3s-.31,2.01-.37,2.44c.18-.18.38-.31.6-.37.21-.06.41-.14.6-.23s.34-.23.46-.41c.12-.18.18-.52.18-1.01ZM262.78,38.5l-.92.37.28.65,1.01.28-.37-1.29ZM263.71,32.04c0-1.04-.22-2.34-.65-3.87l-.46-1.57v8.02l.28-.65c.55-.8.83-1.44.83-1.94ZM266.57,105.65l-.65.92-.55,2.77h.92l.28-3.69ZM266.75,103.07l-.92.37.28.65,1.01.28-.37-1.29Z"/>
    <path class="cls-1" d="M123.59,130.33c0,.25-.08.65-.23,1.2-.15.55-.36,1.26-.6,2.12l-.74,2.67.09-.09c-.13.55-.22,1.09-.28,1.61-.06.52-.14,1.15-.23,1.89s-.17,1.63-.23,2.67c-.06,1.05-.13,2.4-.18,4.06l-.18,6.92c-.06,3.63-1.45,5.44-4.15,5.44-.55,0-1.03-.14-1.43-.41-.4-.28-.71-.58-.92-.92-.22-.34-.37-.66-.46-.97-.09-.31-.14-.49-.14-.55v-2.12c0-1.97-.31-3.78-.92-5.44-.62-1.66-1.75-3.14-3.41-4.43-4.3-3.38-7.81-5.07-10.51-5.07s-5.09.95-6.78,2.86c-1.69,1.91-2.54,5.13-2.54,9.68,0,2.09.26,13.86.78,15.24.52,1.38,1.26,2.52,2.21,3.41.95.89,2.07,1.58,3.37,2.07,1.29.49,2.7.89,4.24,1.2,5.41,1.23,9.73,2.77,12.96,4.61s5.7,3.8,7.42,5.86c1.72,2.06,2.86,4.12,3.41,6.18.55,2.06.83,3.92.83,5.58,0,2.95-.49,22.57-1.48,25.43-.98,2.86-2.71,5.46-5.16,7.79-1.11,1.05-2.46,1.98-4.06,2.81-1.6.83-3.34,1.52-5.21,2.07-1.88.55-3.84.98-5.9,1.29-2.06.31-4.07.46-6.04.46-2.21,0-4.15-.17-5.81-.51-1.66-.34-3.08-.69-4.24-1.06-1.17-.37-2.07-.72-2.72-1.06-.65-.34-1.06-.51-1.24-.51-.49,0-.82.12-.97.37-.15.25-.28.62-.37,1.11-.09.49-.22,1.11-.37,1.84-.15.74-.48,1.63-.97,2.67-1.29,2.83-2.77,4.24-4.43,4.24-.8,0-1.43-.15-1.89-.46-.46-.31-.83-.69-1.11-1.15s-.46-.97-.55-1.52-.14-1.04-.14-1.48c0-.86.18-1.94.55-3.23s.55-2.46.55-3.5l.37-4.52c0-.31.01-.65.05-1.01.03-.37.05-.8.05-1.29,0-.55-.03-1.2-.09-1.94-.06-.74-.22-1.6-.46-2.58-.49-2.09-.82-3.87-.97-5.35-.15-1.48-.23-2.67-.23-3.6,0-.43.28-.92.83-1.48s1.29-.83,2.21-.83c1.53,0,2.64.22,3.32.65.68.43,1.07,1.26,1.2,2.49-.13.49-.13,1.28,0,2.35.12,1.08.18,1.86.18,2.35,0,2.03.63,3.84,1.89,5.44,1.26,1.6,2.77,2.94,4.52,4.01,1.75,1.08,3.58,1.91,5.49,2.49,1.9.58,3.5.88,4.8.88s2.38-.15,3.27-.46c.89-.31,1.64-.69,2.26-1.15.61-.46,1.17-.98,1.66-1.57.49-.58.98-1.12,1.48-1.61.74-.74,1.29-1.67,1.66-2.81.37-1.14.55-19.13.55-20.54,0-2.77-.85-5.16-2.54-7.19-1.69-2.03-3.89-3.32-6.59-3.87-.55-.37-1.38-.81-2.49-1.34-1.11-.52-2.64-1.06-4.61-1.61-1.29,0-2.57-.23-3.83-.69-1.26-.46-2.72-1.03-4.38-1.71-2.21-.49-4.14-1.43-5.76-2.81-1.63-1.38-2.97-2.97-4.01-4.75-1.05-1.78-1.83-3.67-2.35-5.67-.52-2-.78-13.92-.78-15.7,0-2.34.26-4.5.78-6.5.52-2,1.24-3.8,2.17-5.39.68-1.17,1.6-2.37,2.77-3.6,1.17-1.23,3.1-2.55,5.81-3.97.24-.18.6-.35,1.06-.51.46-.15.94-.31,1.43-.46.49-.15.95-.26,1.38-.32.43-.06.74-.09.92-.09l2.49-.55c.98-.18,1.9-.32,2.77-.41.86-.09,1.69-.15,2.49-.18.8-.03,1.6-.06,2.4-.09.8-.03,1.69-.05,2.67-.05,1.23,0,2.6.18,4.1.55,1.51.37,2.93.78,4.29,1.24,1.35.46,2.54.88,3.55,1.24s1.67.55,1.98.55.75-.46,1.34-1.38c.58-.92,1.18-1.94,1.8-3.04.61-1.11,1.21-2.12,1.8-3.04.58-.92,1.06-1.38,1.43-1.38.92,0,1.83.2,2.72.6.89.4,1.34.85,1.34,1.34ZM77.76,144.71c0,.06-.13.22-.37.46l-.78.78c-.28.28-.54.57-.78.88-.25.31-.37.55-.37.74l.65.55c.43-.37.91-.83,1.43-1.38.52-.55,1.21-1.35,2.07-2.4l-1.84.37ZM77.76,157.07c0-.37-.11-1.04-.32-2.03-.22-.98-.45-1.66-.69-2.03-.13.12-.26.72-.41,1.8-.15,1.08-.23,2.07-.23,3l.46.55c.37-.06.66-.23.88-.51.21-.28.32-.54.32-.78ZM82.27,180.93c-.13-.06-.31-.28-.55-.65-.25-.37-.52-.77-.83-1.2-.31-.43-.63-.81-.97-1.15-.34-.34-.63-.57-.88-.69l-.37.37c0,.18.14.46.41.83s.6.75.97,1.15c.37.4.75.77,1.15,1.11.4.34.75.57,1.06.69v-.46ZM85.87,137.8c-.55.12-1.19.34-1.89.65-.71.31-1.49.71-2.35,1.2l-1.2.74.18.92h.74l1.38-.69c.55-.28,1.06-.57,1.52-.88.46-.31.88-.6,1.24-.88s.55-.51.55-.69l-.18-.37ZM92.88,181.85c0,.31.14.72.41,1.24.28.52.44.88.51,1.06l1.57.65c.31.12.54.23.69.32.15.09.32.14.51.14h.28l.28-.46-3.78-3.04-.46.09ZM101.27,185.45l-2.4.37,1.84.83c.24.12.6.29,1.06.51.46.22.92.45,1.38.69.46.25.89.45,1.29.6.4.15.66.23.78.23l.37-.18-4.33-3.04ZM105.42,230.1l-2.4,1.2-2.12,1.75,4.98-1.57-.46-1.38ZM116.58,186.28c-.68-.68-1.32-1.43-1.94-2.26-.62-.83-1.32-1.31-2.12-1.43.12.25.37.58.74,1.01.37.43.75.85,1.15,1.24.4.4.77.77,1.11,1.11.34.34.54.54.6.6l.46-.28ZM115.2,224.85c-.18,0-.4.15-.65.46-.25.31-.51.65-.78,1.01s-.51.75-.69,1.15c-.18.4-.28.69-.28.88,0,.06.03.15.09.28,0,.12.01.22.05.28.03.06.05.12.05.18l2.86-3.69-.65-.55ZM120.27,193.2c-.31-.8-.75-1.54-1.34-2.21-.59-.68-1.03-1.01-1.34-1.01h-.65l.28.46c.12.25.29.54.51.88.21.34.44.69.69,1.06.24.37.47.71.69,1.01.21.31.35.49.41.55h.55l.18-.74Z"/>
    <path class="cls-1" d="M197.64,205.58c0,4-.57,7.88-1.71,11.67-1.14,3.78-3.06,7.39-5.76,10.84-2.58,3.14-5.64,5.53-9.18,7.19-3.54,1.66-7.64,2.49-12.31,2.49-1.79,0-3.32-.06-4.61-.18-1.29-.12-2.51-.29-3.64-.51-1.14-.21-2.28-.51-3.41-.88-1.14-.37-2.44-.8-3.92-1.29-1.79-.55-3.27-1.09-4.47-1.61-1.2-.52-2.2-1.03-3-1.52-.8-.49-1.43-.95-1.89-1.38-.46-.43-.88-.83-1.24-1.2-3.08-3.44-5.32-7.07-6.73-10.88-1.54-4.8-2.31-9.16-2.31-13.09,0-1.11.05-2.43.14-3.97.09-1.54.2-3.29.32-5.26l.37-7.65c.24-.43.4-.92.46-1.48.06-.55.09-1.66.09-3.32v-1.66c0-.68-.03-1.32-.09-1.94,0-.49-.02-.91-.05-1.24-.03-.34-.05-.57-.05-.69v-33.29c-.86-.06-1.65-.17-2.35-.32-.71-.15-1.49-.17-2.35-.05-1.35.12-2.47-.24-3.37-1.09-.89-.85-1.34-1.86-1.34-3.01,0-.85.34-1.69,1.01-2.51.68-.82,1.81-1.48,3.41-1.97,1.72-.55,3.3-1.38,4.75-2.49,1.44-1.11,2.86-2.6,4.24-4.47,1.38-1.87,2.8-4.13,4.24-6.78,1.44-2.64,3-5.78,4.66-9.41v.09c.24-.68.57-1.43.97-2.26.4-.83.78-1.61,1.15-2.35s.7-1.43,1.01-2.07c.31-.65.55-1.12.74-1.43,2.03.31,3.67.65,4.93,1.01,1.26.37,2.24.77,2.95,1.2.7.43,1.17.91,1.38,1.43.21.52.29,1.09.23,1.71-.25.37-.49,1.31-.74,2.81-.25,1.51-.45,3.43-.6,5.76-.15,2.34-.28,5.01-.37,8.02-.09,3.01-.14,6.24-.14,9.68.18.18.72.27,1.61.27s1.87-.01,2.95-.04c1.07-.03,2.09-.08,3.04-.14.95-.06,1.61-.09,1.98-.09,1.97,0,3.66-.08,5.07-.23,1.41-.15,3.07-.23,4.98-.23,1.66,0,3.12.27,4.38.82,1.26.55,1.89,1.25,1.89,2.1l-3.32,4.92c-.18.06-.55.12-1.11.18s-1.01.09-1.38.09c-1.42.12-2.77.23-4.06.32s-2.63.15-4.01.18c-1.38.03-2.83.06-4.33.09-1.51.03-3.18.05-5.03.05-.74,0-1.31.02-1.71.05-.4.03-.6.63-.6,1.8,0,1.05-.03,2.4-.09,4.06-.06,1.66-.09,25.98-.09,27.02,0,.92.05,2.21.14,3.87s.05,3.72-.14,6.18c-.18,2.52-.26,4.61-.23,6.27.03,1.66.05,2.98.05,3.97,0,11.37.95,19.8,2.86,25.27,1.9,5.47,5.26,8.21,10.05,8.21,1.04,0,2.44-.46,4.2-1.38s3.27-2.55,4.56-4.89c2.52-4.24,3.78-9.1,3.78-14.57,0-.55-1.45-1.54-4.33-2.95-5.16-2.52-7.75-6.21-7.75-11.07,0-1.41.2-2.78.6-4.1.4-1.32,1.03-2.49,1.89-3.5.86-1.01,1.95-1.83,3.27-2.44,1.32-.61,2.9-.92,4.75-.92,2.58,0,4.81.49,6.69,1.48,1.87.98,3.43,2.55,4.66,4.7,1.35,2.21,2.24,4.58,2.67,7.1.43,2.52.65,4.83.65,6.92ZM141.02,148.22c0-.37-.13-.92-.37-1.66h-.92v1.66c-.06.92-.22,1.41-.46,1.48,0,.37-.03.91-.09,1.61-.06.71-.09,1.18-.09,1.43,0,.55.08,1.06.23,1.52.15.46.32.82.51,1.06.06-.12.15-.41.28-.88.12-.46.24-1.06.37-1.8.37-1.48.55-2.64.55-3.5v-.92ZM141.02,143.15c0-1.17-.09-3.2-.28-6.09-.13-1.41-.22-2.54-.28-3.37-.06-.83-.13-1.34-.18-1.52l-.09.55c-.25,1.97-.43,3.69-.55,5.16-.13,1.48-.18,2.71-.18,3.69v1.94c0,.43.01.72.05.88.03.15.11.35.23.6h.74c.37-.61.55-1.23.55-1.84ZM142.95,206.5c0-.86-.06-1.8-.18-2.81-.13-1.01-.34-2.5-.65-4.47-.13.43-.29,1.03-.51,1.8-.22.77-.48,1.74-.78,2.9-.25,1.17-.43,2.12-.55,2.86-.13.74-.18,1.29-.18,1.66,0,.8.21,1.88.65,3.23.49,1.41.95,2.4,1.38,2.95.31-2.03.52-3.64.65-4.84.12-1.2.18-2.29.18-3.27ZM143.04,135.68l-.55.55c0,.31.09.75.28,1.32.18.58.31.99.37,1.23l.65-2.01c0-.18.03-.3.09-.36l-.18-.55-.65-.18ZM144.52,218.12h-.74v1.75l.37.55c.37.49.7.91,1.01,1.24.31.34.58.54.83.6v-.65l-1.48-3.5ZM150.97,229.83l-3.23-4.33.18,1.84,1.84,2.49h1.2ZM151.9,121.75c-.06-.12-.22-.29-.46-.51-.25-.21-.4-.35-.46-.41l-.74.92-.09,2.58c.43.55.7,1.01.83,1.38l.92-3.97ZM152.63,179.02c-.18-.37-.32-.77-.41-1.2-.09-.43-.17-.86-.23-1.29-.06.55-.13,1.29-.18,2.21-.06.92-.13,2.06-.18,3.41-.06,1.29-.11,2.51-.14,3.64-.03,1.14-.05,2.2-.05,3.18,0,1.17.09,2.05.28,2.63.18.58.43,1.03.74,1.34v-1.57c0-.61.03-1.35.09-2.21.06-.86.09-1.6.09-2.21v-7.93ZM186.29,190.36c-.49-.31-1.01-.46-1.57-.46-.06,0-.13.03-.18.09-.98.74-1.48,1.32-1.48,1.75.55,0,1.06-.09,1.52-.28s1.03-.55,1.71-1.11ZM191.46,195.89c0-.06-.11-.25-.32-.55-.22-.31-.46-.65-.74-1.01s-.55-.71-.83-1.01c-.28-.31-.54-.46-.78-.46h-.55c.12.55.46,1.2,1.01,1.94s1.35,1.51,2.4,2.31c.12.12.24.18.37.18l-.55-1.38Z"/>
    <path class="cls-1" d="M223.82,174.5c0,1.23-.02,23.97-.05,25.29-.03,1.32-.05,2.63-.05,3.92,0,.12.06.89.18,2.31.12,1.41.43,3.47.92,6.18l1.29,7.84c.55,3.26,1.29,5.55,2.21,6.87.92,1.32,1.63,2.01,2.12,2.07,2.15.68,3.64,1.08,4.47,1.2.83.12,1.3.18,1.43.18.24,0,.58-.05,1.01-.14.43-.09.95-.29,1.57-.6l2.77-1.29c.12-.12.32-.34.6-.65.28-.31.54-.61.78-.92.06-.06.34-.66.83-1.8.49-1.14,1.03-2.6,1.61-4.38.58-1.78,1.12-3.8,1.61-6.04.49-2.24.74-4.53.74-6.87.06-.92.09-1.74.09-2.44s.12-1.31.37-1.8c.24-.49.63-.86,1.15-1.11.52-.25,1.3-.37,2.35-.37.92,0,1.74.23,2.44.69.7.46,1.06,1.22,1.06,2.26,0,.18-.02.37-.05.55-.03.18-.05.34-.05.46.31,1.11.49,1.97.55,2.58.06.62.09,1.14.09,1.57,0,.74-.11,1.8-.32,3.18-.22,1.38-.51,2.86-.88,4.43s-.82,3.11-1.34,4.61c-.52,1.51-1.09,2.72-1.71,3.64-1.23,1.84-2.07,3.18-2.54,4.01s-.88,1.45-1.24,1.84c-.37.4-.82.77-1.34,1.11-.52.34-1.46.94-2.81,1.8-.8.49-1.74.74-2.81.74s-2.44.34-4.1,1.01h-7.75c-.49-.18-.98-.35-1.48-.51-.49-.15-1.17-.23-2.03-.23l-3.78-.55c-1.42-.31-2.63-.72-3.64-1.24-1.01-.52-1.68-1.12-1.98-1.8-1.23-1.23-2.55-2.66-3.97-4.29-1.42-1.63-2.74-3.43-3.97-5.39-1.66-2.58-2.64-4.75-2.95-6.5-.31-1.75-.49-3.12-.55-4.1,0-.43-.09-1.38-.28-2.86s-.37-3.09-.55-4.84-.36-24.95-.51-26.67c-.15-1.72-.23-3.07-.23-4.06,0-4.43.54-8.73,1.61-12.91,1.07-4.18,2.72-7.91,4.93-11.2,2.21-3.29,5.03-5.92,8.44-7.88,3.41-1.97,7.45-2.95,12.13-2.95,3.26,0,6.33.58,9.22,1.75,2.89,1.17,5.44,2.64,7.65,4.43,2.21,1.78,4.02,3.71,5.44,5.76,1.41,2.06,2.31,4.01,2.67,5.86l1.38,6.82c.24,1.91.38,3.37.41,4.38.03,1.01.05,1.77.05,2.26,0,.74-.05,1.37-.14,1.89-.09.52-.32.95-.69,1.29-.37.34-.97.57-1.8.69-.83.12-1.98.18-3.46.18-1.6-.25-3-.4-4.2-.46-1.2-.06-2.32-.09-3.37-.09-2.95,0-5.86.03-8.71.09-2.86.06-5.36.22-7.52.46l-3.41.74ZM209.72,215.7c-.13-.06-.34-.41-.65-1.06-.31-.65-.59-.97-.83-.97v.92l.28.55c.43.74.68,1.26.74,1.57h.55l-.09-1.01ZM208.98,166.57h.28c.31,0,.51-.05.6-.14s.23-.66.41-1.71h-1.29v1.84ZM211.84,208.78c0-.92-.13-1.86-.37-2.81-.25-.95-.55-1.64-.92-2.07h-.37c0,.12-.03.34-.09.65-.06.31-.09.52-.09.65,0,1.23.31,2.8.92,4.7l.55,1.66.37.09v-2.86ZM210.91,167.95c-.18.31-.32.95-.41,1.94-.09.98-.17,1.78-.23,2.4.06,0,.2.05.41.14.21.09.35.14.41.14.18,0,.32-.14.41-.41s.17-.6.23-.97c.06-.37.11-.75.14-1.15.03-.4.11-.72.23-.97l-.28-1.11h-.92ZM214.51,218.37c-.98-2.09-1.66-3.26-2.03-3.5.12,1.05.38,2.01.78,2.9.4.89.81,1.43,1.24,1.61v-1.01ZM215.89,147.48l-.55.74.28,1.75.55-.18-.28-2.31ZM222.16,229.9l-.18.18.37,1.2h.92l-1.11-1.38ZM237.56,162.88c0-.68-.02-1.54-.05-2.58-.03-1.04-.09-2.17-.18-3.37s-.23-2.44-.41-3.73-.46-2.55-.83-3.78c-.43-1.35-.77-2.41-1.01-3.18-.25-.77-.52-1.37-.83-1.8-.31-.43-.66-.71-1.06-.83-.4-.12-.97-.18-1.71-.18-1.11.06-1.97.46-2.58,1.2-.62.74-1.09,1.61-1.43,2.63-.34,1.01-.63,2.11-.88,3.27-.25,1.17-.59,2.21-1.01,3.14-.62,1.29-1.08,2.81-1.38,4.56-.31,1.75-.46,3.18-.46,4.29v6.46c2.15-.25,3.93-.4,5.35-.46,1.41-.06,2.92-.09,4.52-.09h3.97v-5.53ZM243.28,165.74c0-.61-.17-1.27-.51-1.98-.34-.71-.57-1.18-.69-1.43,0,.8-.09,1.8-.28,3s-.31,2.01-.37,2.44c.18-.18.38-.31.6-.37.21-.06.41-.14.6-.23s.34-.23.46-.41c.12-.18.18-.52.18-1.01ZM246.32,167.21l-.92.37.28.65,1.01.28-.37-1.29ZM247.25,160.76c0-1.04-.22-2.34-.65-3.87l-.46-1.57v8.02l.28-.65c.55-.8.83-1.44.83-1.94ZM250.11,216.71l-.65.92-.55,2.77h.92l.28-3.69ZM250.29,214.13l-.92.37.28.65,1.01.28-.37-1.29Z"/>
    <path class="cls-1" d="M318.9,149.6c1.9,1.84,3.44,3.84,4.61,5.99,1.17,2.15,2.07,4.43,2.72,6.82s1.07,4.89,1.29,7.47c.21,2.58.32,5.26.32,8.02,0,.74-.09,1.78-.28,3.14-.18,1.35-.49,2.92-.92,4.7-.68,2.77-1.72,5.33-3.14,7.7-1.42,2.37-2.92,4.41-4.52,6.13-1.11,1.23-2.81,2.49-5.12,3.78s-4.97,2.49-7.98,3.6h.09c-.86.43-1.81.72-2.86.88-1.05.15-2.25.29-3.6.41-.86.06-2.14.37-3.83.92-1.69.55-3.71,1.14-6.04,1.75,0,1.05-.03,1.94-.09,2.67-.06.74-.14,1.48-.23,2.21s-.17,1.57-.23,2.49c-.06.92-.09,2.09-.09,3.5v3.23c0,.86.01,1.58.05,2.17.03.58.05,1.12.05,1.61s0-13.56,0-13c0,.43.03.97.09,1.61.06.65.14,1.34.23,2.07s.17,1.43.23,2.07c.06.65.09,1.18.09,1.61,0,.31-.02.6-.05.88-.03.28-.05.6-.05.97,0,.61.03,1.34.09,2.17.06.83.21,1.92.46,3.27.31.86.57,1.77.78,2.72.21.95.32,1.46.32,1.52l1.57.65c1.48.61,2.63,1.08,3.46,1.38.83.31,1.44.63,1.84.97.4.34.65.81.74,1.43.09.61.14,1.54.14,2.77,0,.55-.32.92-.97,1.11s-1.37.28-2.17.28-1.54-.05-2.21-.14c-.68-.09-1.08-.14-1.2-.14h-15.86c-.62,0-1.61.08-3,.23-1.38.15-2.86.34-4.43.55-1.57.21-3.08.4-4.52.55-1.45.15-2.48.23-3.09.23-1.23,0-2.12-.25-2.67-.74-.55-.49-.83-1.08-.83-1.75,0-.8.37-1.61,1.11-2.44s1.81-1.46,3.23-1.89c.12-.18.51-.31,1.15-.37.65-.06,1.3-.52,1.98-1.38.74-2.34,1.23-4.77,1.48-7.28.24-2.52.37-5.26.37-8.21,0-2.09-.03,10.31-.09,8.07-.06-2.24-.09-4.66-.09-7.24,0-4.06.01-7.93.05-11.62.03-3.69.05-7.25.05-10.7,0-2.34-.02-4.58-.05-6.73-.03-2.15-.08-4.24-.14-6.27-.06-1.66-.09-3.86-.09-6.59v-8.76c0-3.1-.02-6.22-.05-9.36-.03-3.14-.11-5.98-.23-8.53-.13-2.55-.31-4.63-.55-6.22-.25-1.6-.59-2.4-1.01-2.4-.92,0-1.75.12-2.49.37-.74.25-1.38.37-1.94.37-.98,0-1.84-.28-2.58-.83s-1.11-1.63-1.11-3.23c0-.61.36-1.09,1.06-1.43.71-.34,1.6-.6,2.67-.78s2.24-.34,3.5-.46c1.26-.12,2.44-.25,3.55-.37,1.97-.25,3.93-.52,5.9-.83,1.97-.31,3.9-.46,5.81-.46,1.23,0,4.76.28,10.6.83,3.32.31,5.82.62,7.52.92,1.69.31,2.6.49,2.72.55.55.25,1.21.41,1.98.51.77.09,1.66.28,2.67.55s2.18.69,3.5,1.24c1.32.55,2.81,1.38,4.47,2.49,1.48,1.6,2.81,2.89,4.01,3.87,1.2.98,1.8,1.66,1.8,2.03v.09ZM271.59,232.04c0-1.72.05-3.01.14-3.87.09-.86.26-1.72.51-2.58-.49.31-.91,1.2-1.24,2.67-.34,1.48-.51,3.29-.51,5.44h.55c.24,0,.4-.11.46-.32.06-.22.09-.66.09-1.34ZM271.22,215.81c0,.8-.02,1.4-.05,1.8-.03.4-.05.75-.05,1.06l1.2,4.52-.09-6.92-.46-1.38-.55.92ZM272.61,220.15l-.83,2.03.83,2.03v-4.06ZM271.96,180.4c0,1.48.18,2.71.55,3.69.24-.98.37-1.72.37-2.21v-.74l.55-7.65-1.11-2.21-.37,9.13ZM272.14,168.97h.74l.55-7.01c0-.25-.14-.72-.41-1.43-.28-.71-.45-1.12-.51-1.24-.13.31-.22.63-.28.97-.06.34-.09.63-.09.88v7.84ZM273.53,199.95c-.13-.31-.29-.8-.51-1.48-.22-.68-.48-1.08-.78-1.2l.18,6.64,1.11-.92v-3.04ZM277.49,222.54c0-.37-.13-.72-.37-1.06-.25-.34-.62-.54-1.11-.6v1.94l.65,1.38.83-1.66ZM280.81,141.21c.55,0,1.04-.08,1.48-.23.43-.15.65-.38.65-.69l-.55-.92c-.25-.06-.54-.11-.88-.14-.34-.03-.82-.05-1.43-.05l-.37.74c.06.06.18.29.37.69.18.4.43.6.74.6ZM286.16,207.24c-.13-.31-.39-.52-.78-.65-.4-.12-.85-.18-1.34-.18h-1.2v.37l1.75.83,1.57-.37ZM290.22,202.35c2.77,0,4.99-.69,6.69-2.07,1.69-1.38,3.01-3.04,3.97-4.98.95-1.94,1.58-3.98,1.89-6.13.31-2.15.46-3.97.46-5.44l-.09-1.94c0-4.86-.14-8.91-.41-12.17-.28-3.26-.68-5.98-1.2-8.16-.52-2.18-1.12-4.01-1.8-5.49-.68-1.48-1.42-2.89-2.21-4.24-.31-.55-.59-1.21-.83-1.98-.25-.77-.55-1.52-.92-2.26s-.83-1.37-1.38-1.89c-.55-.52-1.29-.78-2.21-.78-.43,0-1.05.22-1.84.65-.31.18-.57,1.05-.78,2.58-.22,1.54-.37,3.24-.46,5.12-.09,1.88-.17,3.71-.23,5.49-.06,1.78-.09,3.01-.09,3.69-.13,3.75-.22,6.78-.28,9.08-.06,2.31-.09,4.26-.09,5.86,0,1.23.06,3.01.18,5.35.12,2.34.24,4.78.37,7.33.12,2.55.24,4.98.37,7.28.12,2.31.18,4.01.18,5.12h.74ZM299.35,143.7c.06.25.31.43.74.55.43.12.89.18,1.38.18v-.18c0-.31-.09-.55-.28-.74s-.62-.37-1.29-.55l-.55.74ZM308.11,148.68c-.49-.74-1.14-1.14-1.94-1.2.12.31.31.63.55.97.24.34.68.85,1.29,1.52h.65l-.09-.65-.46-.65ZM308.75,199.4l-.55-.83-.92,1.01v.37h1.48v-.55ZM313.92,190.91l-.28-.74-1.66,1.38.55.74,1.38-1.38ZM316.78,158.64c-.31-.25-.6-.61-.88-1.11-.28-.49-.55-.97-.83-1.43s-.52-.89-.74-1.29c-.22-.4-.36-.69-.41-.88h-.74l-.18.65c.18.18.4.49.65.92.24.43.58.98,1.01,1.66l1.29,2.21.65.18.18-.92ZM320.47,185.47l-.46-7.19-1.01,6.82c-.13.18-.26.52-.41,1.01-.15.49-.32.98-.51,1.48-.18.49-.36.97-.51,1.43-.15.46-.29.78-.41.97.68,0,1.72-1.72,3.14-5.16v-.09l.18.74Z"/>
    <path class="cls-1" d="M367.99,152.86c0,1.42-.29,2.97-.86,4.65-.57,1.69-1.48,3.25-2.72,4.69-.17.07-.27.24-.3.48-1.02.79-1.97,1.46-2.85,1.99-.88.53-1.77.97-2.67,1.3-.89.34-1.83.58-2.81.73-.98.15-2.09.22-3.34.22-.97,0-1.97-.12-3-.37-1.03-.25-2.05-.6-3.04-1.04-.99-.45-1.94-.99-2.83-1.64-.89-.65-1.69-1.38-2.39-2.2-.82-.94-1.42-1.81-1.81-2.59-.39-.78-.69-1.5-.91-2.14-.27-.87-.48-1.87-.63-3.02-.15-1.14-.22-2.46-.22-3.95,0-.12.06-.58.17-1.36s.39-1.72.84-2.81c.45-1.09,1.14-2.25,2.07-3.48.93-1.23,2.22-2.35,3.86-3.37l.6-.22c.62-.4,1.22-.71,1.79-.95.57-.24,1.17-.42,1.79-.54.62-.12,1.3-.2,2.03-.22.73-.02,1.57-.04,2.52-.04,2.66,0,5.06.54,7.2,1.62,2.14,1.08,3.78,2.64,4.92,4.67.12.32.27.64.43.95.16.31.32.54.47.69.6,1.54,1.03,2.95,1.3,4.23.27,1.28.41,2.51.41,3.7ZM339.4,151.2c-.2.45-.3.73-.3.86,0,.2.06.47.17.8s.22.52.32.54l.04-2.57-.22.37ZM344.8,141.59s-.05.09-.15.19l-.32.32c-.11.11-.22.23-.32.35-.1.12-.15.22-.15.3l.26.22c.17-.15.37-.34.58-.56.21-.22.49-.55.84-.97l-.75.15ZM344.69,143.67c-.1.03-.22.14-.37.35-.15.21-.25.34-.3.39v.67c0,.17,0,.3.02.37.01.07.04.16.09.26h.22l.45-1.9-.11-.15ZM344.43,157.77c.25.57.45.87.6.89l.07-.41-.67-.48ZM345.62,155.6c-.13-.17-.25-.78-.37-1.83-.03-.17-.04-.31-.04-.41s-.01-.19-.04-.26c-.15.35-.22.7-.22,1.04v.41c0,.37.17.81.52,1.3h.15v-.26ZM346,160h-.3v.71l.15.22c.15.2.28.37.41.5.12.14.24.22.34.24v-.26l-.6-1.42ZM348.08,138.79c-.4.07-.97.32-1.71.75l-.48.3.07.37h.3l.56-.28c.22-.11.43-.23.62-.35.19-.12.35-.24.5-.35s.22-.21.22-.28l-.07-.15ZM348.05,163.88l-.67-.37v.22l.67.37v-.22ZM357.66,151.2c0-3.85-.4-6.8-1.21-8.84-.81-2.04-2.14-3.06-4.01-3.06-.3,0-.58.07-.86.22-.27.15-.53.32-.76.52-.24.2-.44.41-.6.63-.16.22-.28.41-.35.56-.35.6-.61,1.03-.78,1.3-.17.27-.29.47-.34.6-.15.22-.22.52-.22.88s-.05.69-.15.99c-.1.3-.19.72-.26,1.25-.07.53-.13,1.17-.17,1.9-.04.73-.07,1.54-.09,2.42-.03.88-.04,1.82-.04,2.81s.01,1.77.04,2.48c.02.71.07,1.34.13,1.9.06.56.14,1.06.22,1.49.09.44.19.85.32,1.25l-.04-.04c.75,1.54,1.37,2.63,1.86,3.26.5.63.93.95,1.3.95l1.27.11c.5,0,.93-.04,1.29-.13.36-.09.69-.3.99-.63s.57-.83.82-1.49c.25-.66.52-1.55.82-2.67.35-1.27.57-2.54.67-3.8.1-1.27.15-2.57.15-3.91v-.97ZM359.9,162.87l-.63.34v.22l.63-.41v-.15ZM360.57,149.49c-.05.1-.1.25-.15.45-.05.2-.1.4-.15.62-.05.21-.09.41-.13.6s-.07.32-.09.39l.07.41-.07.34c-.17.8-.31,1.5-.41,2.11-.1.61-.16,1.13-.19,1.55h.26c.12-.79.27-1.65.43-2.55.16-.91.37-1.99.62-3.26l-.19-.63ZM360.31,140.02h-.26c0,.32.09.65.26.97h.22l.26-.56-.48-.41ZM363,160.82c-.07,0-.16.06-.26.19-.1.12-.21.26-.32.41s-.21.3-.28.47c-.07.16-.11.28-.11.35,0,.03.01.06.04.11,0,.05,0,.09.02.11.01.03.02.05.02.07l1.16-1.49-.26-.22ZM362.59,143.08l-.41.52.82.37-.41-.89ZM363.03,146.02v.56l.52.37.15-.63-.67-.3ZM364.26,158.03l-.04.82c.15,0,.22-.1.22-.3l.3-.6-.48.07ZM365.68,152.66c0-.12-.03-.32-.07-.58-.05-.26-.07-.45-.07-.58-.1.2-.16.48-.17.86-.01.37-.04.66-.09.86l-.11-.22c0,.42.01.74.04.95.02.21.05.38.07.5.12.05.22-.12.3-.52.07-.4.11-.82.11-1.27Z"/>
    <path class="cls-1" d="M394.13,136.59c.47.15.82.25,1.04.32.22.06.34.24.34.54,0,.15-.01.32-.04.52-.03.2-.07.39-.15.58s-.17.35-.3.48c-.13.14-.27.21-.45.21-.2.03-.43.03-.69.02-.26-.01-.52-.04-.76-.09-.1.25-.16.51-.17.78-.01.27-.02.58-.02.93v.84c0,.29-.01.62-.04.99-.03.15-.03.31,0,.48.02.17.05.32.07.45.05.22.09.43.13.62s.06.29.06.32c0,.67-.02,1.5-.06,2.5-.04.99-.11,2.16-.21,3.5-.1,1.34-.17,2.5-.21,3.49-.04.98-.06,1.82-.06,2.52,0,.35-.19.97-.56,1.86.05.12.08.21.09.26.01.05.03.1.06.15-.13.8-.29,1.45-.48,1.98-.2.52-.44,1.13-.71,1.83-.03.05-.04.09-.06.11-.01.03-.04.07-.09.13-.05.06-.12.17-.21.32-.09.15-.21.37-.35.67-.32.32-.63.62-.91.89-.29.27-.57.52-.84.75-.27.22-.57.41-.88.56-.31.15-.65.26-1.03.34l-.75.11c-.27.05-.52.1-.75.15-.22.05-.46.14-.71.26-.45,0-.95.04-1.51.13-.56.09-1.17.13-1.85.13-3.33,0-5.78-1.03-7.34-3.09-1.57-2.06-2.35-5.19-2.35-9.39,0-1.59.04-4.03.11-7.31.02-.82.05-1.53.07-2.14.02-.61.06-1.16.09-1.64s.07-.93.09-1.32c.02-.4.04-.81.04-1.23,0-.57-.04-1.09-.13-1.55-.09-.46-.11-.7-.06-.73-.72-.02-1.17-.15-1.36-.37s-.29-.55-.32-.97c0-.42.19-.76.56-1.01.37-.25,1.08-.32,2.13-.22.2.03.43.05.71.07.27.03.51.06.71.11.2.03.4.06.62.09.21.04.4.07.58.09l.71.07h.22c.3,0,.65,0,1.06-.02.41-.01.93-.04,1.55-.09,1.19-.07,2.09-.11,2.68-.11s1.04.08,1.27.24c.22.16.34.38.34.65.05.12.03.32-.06.6-.09.27-.27.44-.54.48-.42.15-.73.25-.93.3-.2.05-.36.09-.48.11-.22.42-.39,1.08-.48,1.96-.1.88-.15,2.22-.15,4.01v2.95c0,.35-.01.76-.04,1.23l-.04,1.01c0,.2,0,.38-.02.54-.01.16-.02.32-.02.47-.03.42-.04.81-.04,1.16v.93c0,.5.01,1.07.04,1.71.02.65.06,1.4.11,2.27l.75,4.55h-.04c.27.55.55,1.01.82,1.38.27.37.55.65.82.82.2.2.42.32.67.35.25.04.47.06.67.06.32,0,.63-.08.93-.24.3-.16.59-.35.88-.58.28-.22.55-.44.8-.65.25-.21.48-.37.71-.47.57-.62,1.05-1.91,1.44-3.86.38-1.95.64-4.43.76-7.44.02-.55.05-1.03.07-1.45.02-.42.06-.7.11-.82l-.04.04v-.41c-.1-2.73-.2-4.88-.3-6.43-.1-1.55-.31-2.57-.63-3.04-1.19-.12-1.98-.33-2.37-.62-.39-.29-.58-.6-.58-.95,0-.32.09-.55.28-.67.19-.12.65-.19,1.4-.19.17,0,.34.01.5.04.16.03.34.04.54.04.52-.12,1.01-.14,1.47-.06.46.09.97.13,1.55.13.15,0,.35,0,.62.02.26.01.53.03.8.06.22.03.41.02.56-.02s.31-.06.48-.06ZM373.06,138.68c.02.1.05.27.07.5.02.24.04.5.06.8.01.3.02.6.04.89.01.3.02.55.02.75.07.72.17,1.32.3,1.79v-2.2c0-.1,0-.27.02-.52.01-.25.04-.52.07-.8.04-.29.07-.57.11-.86.04-.29.08-.53.13-.73l-.67-.07-.15.45ZM373.81,160.26l.34.93h.26l-.41-1.53-.19.6ZM375.37,162.54l-.63-.89-.11.15.67,1.57.07-.82ZM376.49,163.55l-.34-.07c.02.2.11.37.24.52.14.15.32.32.54.52l.11.15h.34l-.89-1.12ZM378.32,150.79h-.07l-.41,1.83.56-.71-.07-1.12ZM378.5,148.86c0-.15,0-.34-.02-.58-.01-.24-.03-.48-.06-.73-.03-.25-.04-.49-.06-.73-.01-.24-.02-.43-.02-.58l-.22.22c-.03.17-.06.3-.09.37s-.06.16-.06.26c0,.17,0,.38.02.62.01.24.03.52.06.84.02.32.04.6.06.84.01.24.02.44.02.62l.22-.19c0-.1.02-.26.07-.48.05-.22.07-.38.07-.48ZM378.24,140.02l-.15,1.49h.15l.37-1.49h-.37ZM378.47,144.27l-.37.07.11,1.01.22.07.34-.26-.3-.89ZM389.69,162.5l.41-1.57-.52.63-.52,1.01-.26.26.89-.34Z"/>
    <path class="cls-1" d="M424.4,156.8c0,1.62-.23,3.19-.69,4.72-.46,1.53-1.24,2.99-2.33,4.38-1.04,1.27-2.28,2.24-3.71,2.91-1.43.67-3.09,1.01-4.98,1.01-.72,0-1.34-.02-1.86-.07-.52-.05-1.01-.12-1.47-.21-.46-.09-.92-.21-1.38-.35-.46-.15-.99-.32-1.58-.52-.72-.22-1.32-.44-1.81-.65-.48-.21-.89-.42-1.21-.62-.32-.2-.58-.38-.76-.56-.19-.17-.35-.34-.5-.48-1.24-1.39-2.15-2.86-2.72-4.4-.62-1.94-.93-3.7-.93-5.29,0-.45.02-.98.06-1.6.04-.62.08-1.33.13-2.13l.15-3.09c.1-.17.16-.37.19-.6.02-.22.04-.67.04-1.34v-.67c0-.27-.01-.53-.04-.78,0-.2,0-.37-.02-.5-.01-.14-.02-.23-.02-.28v-4.18c-.35-.02-.67-.07-.95-.13-.29-.06-.6-.07-.95-.02-.55.05-1-.1-1.36-.44-.36-.34-.54-.75-.54-1.22,0-.34.14-.68.41-1.01.27-.33.73-.6,1.38-.79.7-.22,1.34-.56,1.92-1.01.58-.45,1.16-1.05,1.71-1.81.56-.76,1.13-1.67,1.71-2.74.58-1.07,1.21-2.34,1.88-3.8v.04c.1-.27.23-.58.39-.91.16-.34.32-.65.47-.95s.28-.58.41-.84c.12-.26.22-.45.3-.58.82.12,1.48.26,1.99.41.51.15.91.31,1.19.48.28.17.47.37.56.58.09.21.12.44.09.69-.1.15-.2.53-.3,1.14-.1.61-.18,1.39-.24,2.33-.06.94-.11,2.03-.15,3.24-.04,1.22-.06,2.52-.06,3.91.07.07.29.11.65.11s.76,0,1.19-.02c.43-.01.84-.03,1.23-.06.38-.02.65-.04.8-.04.79,0,1.48-.03,2.05-.09.57-.06,1.24-.09,2.01-.09.67,0,1.26.11,1.77.33.51.22.76.5.76.85l-1.34,1.99c-.07.02-.22.05-.45.07s-.41.04-.56.04c-.57.05-1.12.09-1.64.13s-1.06.06-1.62.07c-.56.01-1.14.03-1.75.04-.61.01-1.29.02-2.03.02-.3,0-.53,0-.69.02-.16.01-.24.25-.24.73,0,.42-.01.97-.04,1.64-.03.67-.04,1.22-.04,1.64,0,.37.02.89.06,1.57.04.67.02,1.5-.06,2.5-.07,1.02-.11,1.86-.09,2.54.01.67.02,1.21.02,1.6,0,4.6.38,8,1.16,10.22.77,2.21,2.13,3.32,4.06,3.32.42,0,.99-.19,1.7-.56s1.32-1.03,1.85-1.98c1.02-1.71,1.53-3.68,1.53-5.89,0-.22-.58-.62-1.75-1.19-2.09-1.02-3.13-2.51-3.13-4.47,0-.57.08-1.12.24-1.66.16-.53.42-1.01.76-1.42.35-.41.79-.74,1.32-.99.53-.25,1.17-.37,1.92-.37,1.04,0,1.94.2,2.7.6.76.4,1.38,1.03,1.88,1.9.55.89.91,1.85,1.08,2.87.17,1.02.26,1.95.26,2.8ZM401.51,142.89c0-.15-.05-.37-.15-.67h-.37v.67c-.03.37-.09.57-.19.6,0,.15-.01.37-.04.65-.03.29-.04.48-.04.58,0,.22.03.43.09.62.06.19.13.33.21.43.02-.05.06-.17.11-.35.05-.19.1-.43.15-.73.15-.6.22-1.07.22-1.42v-.37ZM401.51,140.84c0-.47-.04-1.29-.11-2.46-.05-.57-.09-1.03-.11-1.36-.03-.34-.05-.54-.07-.62l-.04.22c-.1.8-.17,1.49-.22,2.09-.05.6-.07,1.09-.07,1.49v.78c0,.17,0,.29.02.35.01.06.04.14.09.24h.3c.15-.25.22-.5.22-.75ZM402.29,157.17c0-.35-.03-.73-.07-1.14-.05-.41-.14-1.01-.26-1.81-.05.17-.12.42-.21.73-.09.31-.19.7-.32,1.17-.1.47-.17.86-.22,1.16-.05.3-.07.52-.07.67,0,.32.09.76.26,1.3.2.57.38.97.56,1.19.12-.82.21-1.47.26-1.96.05-.48.07-.93.07-1.32ZM402.33,137.82l-.22.22c0,.12.04.3.11.54.07.23.12.4.15.5l.26-.81c0-.07.01-.12.04-.15l-.07-.22-.26-.07ZM402.92,161.87h-.3v.71l.15.22c.15.2.28.37.41.5.12.14.24.22.34.24v-.26l-.6-1.42ZM405.53,166.6l-1.3-1.75.07.75.75,1.01h.48ZM405.91,132.19s-.09-.12-.19-.21c-.1-.09-.16-.14-.19-.17l-.3.37-.04,1.04c.17.22.28.41.34.56l.37-1.6ZM406.21,146.06c-.07-.15-.13-.31-.17-.48-.04-.17-.07-.35-.09-.52-.03.22-.05.52-.07.89-.03.37-.05.83-.07,1.38-.03.52-.04,1.01-.06,1.47-.01.46-.02.89-.02,1.29,0,.47.04.83.11,1.06.07.24.17.42.3.54v-.63c0-.25.01-.55.04-.89.02-.35.04-.65.04-.89v-3.21ZM419.81,150.65c-.2-.12-.41-.19-.63-.19-.03,0-.05.01-.07.04-.4.3-.6.53-.6.71.22,0,.43-.04.62-.11s.42-.22.69-.45ZM421.9,152.88s-.04-.1-.13-.22c-.09-.12-.19-.26-.3-.41s-.22-.29-.34-.41c-.11-.12-.22-.19-.32-.19h-.22c.05.22.19.48.41.78s.55.61.97.93c.05.05.1.07.15.07l-.22-.56Z"/>
    <path class="cls-1" d="M381.58,216.97c0,1.9-.38,3.98-1.15,6.25-.77,2.27-1.99,4.37-3.65,6.3-.23.1-.37.32-.4.65-1.37,1.07-2.64,1.96-3.83,2.67-1.18.72-2.38,1.3-3.58,1.75-1.2.45-2.46.77-3.78.97-1.32.2-2.81.3-4.48.3-1.3,0-2.64-.17-4.03-.5-1.39-.33-2.75-.8-4.08-1.4-1.33-.6-2.6-1.33-3.8-2.2-1.2-.87-2.27-1.85-3.2-2.95-1.1-1.27-1.91-2.42-2.43-3.47-.52-1.05-.93-2.01-1.23-2.87-.37-1.17-.65-2.51-.85-4.05-.2-1.53-.3-23.41-.3-25.41,0-.17.08-.77.23-1.82.15-1.05.53-2.31,1.13-3.77.6-1.47,1.53-3.02,2.78-4.67,1.25-1.65,2.98-3.16,5.18-4.52l.8-.3c.83-.53,1.63-.96,2.4-1.27.77-.32,1.57-.56,2.4-.72.83-.17,1.74-.27,2.73-.3.98-.03,2.11-.05,3.38-.05,3.57,0,6.79.72,9.66,2.17,2.87,1.45,5.07,3.54,6.61,6.27.17.43.36.86.58,1.27.22.42.43.72.63.92.8,2.07,1.38,3.96,1.75,5.67.37,1.72.55,23.49.55,25.09ZM343.2,194.63c-.27.6-.4,21.1-.4,21.27,0,.27.08.63.23,1.08s.29.69.43.73l.05-23.57-.3.5ZM350.45,181.72s-.07.12-.2.25l-.43.43c-.15.15-.29.31-.43.48-.13.17-.2.3-.2.4l.35.3c.23-.2.49-.45.78-.75.28-.3.66-.73,1.13-1.3l-1,.2ZM350.3,184.52c-.13.03-.3.19-.5.48-.2.28-.33.46-.4.53v.9c0,.23,0,.4.03.5.02.1.06.22.13.35h.3l.6-2.55-.15-.2ZM349.95,223.55c.33.77.6,1.17.8,1.2l.1-.55-.9-.65ZM351.55,220.65c-.17-.23-.33-1.05-.5-2.45-.03-.23-.05-.42-.05-.55s-.02-.25-.05-.35c-.2.47-.3.93-.3,1.4v.55c0,.5.23,1.08.7,1.75h.2v-.35ZM352.05,226.55h-.4v.95l.2.3c.2.27.38.49.55.68.17.18.32.29.45.33v-.35l-.8-1.9ZM354.86,177.96c-.53.1-1.3.43-2.3,1l-.65.4.1.5h.4l.75-.38c.3-.15.58-.31.83-.48.25-.17.48-.33.68-.48s.3-.28.3-.38l-.1-.2ZM354.81,231.76l-.9-.5v.3l.9.5v-.3ZM367.72,194.63c0-5.17-.54-9.12-1.63-11.86-1.08-2.74-2.88-4.1-5.38-4.1-.4,0-.78.1-1.15.3-.37.2-.71.43-1.03.7-.32.27-.58.55-.8.85-.22.3-.38.55-.48.75-.47.8-.82,1.39-1.05,1.75-.23.37-.38.63-.45.8-.2.3-.3.69-.3,1.18s-.07.93-.2,1.33c-.13.4-.25.96-.35,1.68-.1.72-.18,1.57-.23,2.55-.05.98-.09,2.07-.13,3.25-.03,1.18-.05,22.56-.05,23.89s.02,2.38.05,3.33c.03.95.09,1.8.18,2.55.08.75.18,1.42.3,2,.12.58.26,1.14.43,1.68l-.05-.05c1,2.07,1.83,3.53,2.5,4.38.67.85,1.25,1.28,1.75,1.28l1.7.15c.67,0,1.24-.06,1.73-.18.48-.12.93-.4,1.33-.85s.77-1.12,1.1-2c.33-.88.7-2.08,1.1-3.58.47-1.7.77-3.4.9-5.1.13-1.7.2-3.45.2-5.25v-21.42ZM370.72,230.4l-.85.45v.3l.85-.55v-.2ZM371.62,192.32c-.07.13-.13.33-.2.6-.07.27-.13.54-.2.83-.07.28-.13.55-.18.8s-.09.43-.13.53l.1,20.67-.1.45c-.23,1.07-.42,2.01-.55,2.83-.13.82-.22,1.51-.25,2.08h.35c.17-1.07.36-2.21.58-3.43.22-1.22.49-22.79.83-24.49l-.25-.85ZM371.27,179.61h-.35c0,.43.12.87.35,1.3h.3l.35-.75-.65-.55ZM374.87,227.65c-.1,0-.22.08-.35.25-.13.17-.28.35-.43.55s-.28.41-.38.63c-.1.22-.15.38-.15.48,0,.03.02.08.05.15,0,.07,0,.12.03.15.02.03.03.07.03.1l1.55-2-.35-.3ZM374.32,183.72l-.55.7,1.1.5-.55-1.2ZM374.92,187.67v.75l.7.5.2-.85-.9-.4ZM376.57,223.9l-.05,1.1c.2,0,.3-.13.3-.4l.4-.8-.65.1ZM378.47,216.69c0-.17-.03-.43-.1-.78-.07-.35-.1-20.72-.1-20.89-.13.27-.21,20.77-.23,21.27-.02.5-.06.88-.13,1.15l-.15-.3c0,.57.02.99.05,1.28.03.28.07.51.1.68.17.07.3-.17.4-.7.1-.53.15-1.1.15-1.7Z"/>
    <path class="cls-1" d="M415.65,181.82c.2.28.35.62.45,1.02.1.4.18.79.23,1.18.05.4.08.77.08,1.14v.83c0,.76-.1,1.71-.3,2.84-.2,1.14-.52,2.23-.95,3.27-.43,1.04-1.02,1.94-1.75,2.7-.73.76-1.62,1.14-2.65,1.14-2.34,0-3.96-.35-4.88-1.04-.92-.69-1.38-1.63-1.38-2.8,0-.73.27-1.41.8-2.06.53-.65,1.27-1.19,2.2-1.64l1.2-.57c.77-.35,1.15-1.33,1.15-2.94,0-.73-.18-1.46-.53-2.2-.35-.74-.81-1.41-1.38-1.99-.57-.58-1.2-1.07-1.9-1.45s-1.39-.57-2.05-.57c-.1,0-.27.06-.5.17s-.48.24-.75.38c-.27.14-.51.29-.73.45-.22.16-.34.28-.38.38l-1.3,1,.15-.05c-.63.57-1.13,1.21-1.48,1.92s-.62,1.56-.8,2.56c-.18,1-.3,2.16-.35,3.51-.05,1.34-.08,2.91-.08,4.72,0,.38.02.95.05,1.71.03.76.07,1.55.1,2.37.03.82.07,1.63.1,2.42.03.79.05,1.41.05,1.85l1.1-.19c.5-.09.97-.18,1.4-.26.43-.08.87-.12,1.3-.12h-.05c.27,0,.57-.02.9-.05.27-.03.58-.06.93-.07.35-.02.71-.02,1.08-.02.47,0,.93.02,1.4.05.47.03.88.09,1.25.19.37.09.67.23.9.4.23.17.35.39.35.64l-.5,1.9c-.17.03-.35.06-.55.07-.2.02-.42.02-.65.02h-.5c-.17,0-.33-.02-.5-.05l-.15-.09c-.37.06-.88.13-1.53.19-.65.06-1.33.13-2.03.19-.7.06-1.36.13-1.98.21-.62.08-1.04.13-1.28.17v.57c0,.7.05,1.61.15,2.75s.21,2.39.35,3.74c.13,1.36.29,2.78.47,4.27.18,1.49.34,2.93.47,4.34.13,1.41.25,2.71.35,3.91.1,1.2.15,2.2.15,2.99v1.8c0,.19.02.31.05.36s.08.09.15.12c1.02.16,1.78.36,2.26.62.48.25.72.62.72,1.09,0,.41-.08.81-.25,1.21-.17.4-.7.59-1.6.59h-2.43c-.52,0-.95,0-1.3-.02-.35-.02-.7-.02-1.05-.02h-1.63c-1.13,0-1.98.02-2.53.07s-1.09.15-1.63.31l-1.15-.05-1.45.24c-.23.06-.47.14-.7.24-.23.09-.58.14-1.05.14-.43,0-.76-.15-.98-.45-.22-.3-.39-.64-.53-1.02-.13-.41-.22-.9-.25-1.47.17-.38.41-.58.73-.62.32-.03.63-.08.93-.14.3-.06.57-.22.8-.47.23-.25.35-.79.35-1.61,0-.28,0-.67-.03-1.16-.02-.49-.04-1-.08-1.52-.03-.52-.08-1.03-.15-1.52-.07-.49-.15-.89-.25-1.21-.27-1.61-.5-3.02-.7-4.22-.2-1.2-.36-2.29-.48-3.27-.12-.98-.21-1.89-.28-2.73-.07-.84-.13-1.71-.18-2.63-.05-.92-.08-1.92-.08-3.01v-9.5c0-.09.03-.25.08-.47.05-.22.09-.47.13-.76.1-1.23.19-2.37.28-3.41.08-1.04.23-2.05.43-3.03.2-.98.48-1.92.85-2.82.37-.9.87-1.82,1.5-2.77.1-1.2.53-2.23,1.3-3.08.77-.85,1.95-1.72,3.55-2.61h-.05c0-.06.18-.23.53-.5.35-.27.93-.61,1.73-1.02.77-.38,1.42-.69,1.95-.92.53-.24,1.09-.43,1.68-.57.58-.14,1.27-.24,2.05-.28.78-.05,1.81-.07,3.08-.07l2.25.47c.63.16,1.2.35,1.7.57.5.22,1,.48,1.5.78.5.3,1.03.63,1.58,1,.55.36,1.19.78,1.93,1.26l1.45,2.13ZM389.03,203.95l-.2-2.51h-.2v2.51h.4ZM391.63,228.88l-1,.14v.14l.5.24h.5v-.52ZM392.59,204.33l-.6-3.79-.3.09c0,.35-.02.82-.05,1.42-.03.6-.05,1.07-.05,1.42,0,.41.08.81.23,1.18s.34.57.58.57l.2-.09v-.81ZM395.14,184.57l-.25-1.09-.5.95v1.14l.6-.14.15-.85ZM396.34,217.46c.03-.09.06-.2.08-.31.02-.11.03-.29.03-.55l.55.24.1-7.92c-.07.09-.14.31-.23.64-.08.33-.18.7-.28,1.09-.1.4-.18.77-.25,1.14-.07.36-.1.61-.1.73l-.1,3.79c0,.32,0,.55.03.71.02.16.08.3.18.43ZM397.19,219.21c-.07.06-.12.14-.15.24l-.1.28c.03.32.1.66.2,1.04s.25.74.45,1.09c-.03-.54-.08-.96-.13-1.26-.05-.3-.1-.59-.15-.88s-.09-.46-.13-.52ZM412.4,191.25c0-.22-.2-.46-.6-.71l-.1-.09c0,.13-.02.34-.05.64-.03.3-.05.51-.05.64v.28h.4l.4-.57v-.19ZM413.8,186.23l-.15-1.42c0,.06-.04.29-.13.69-.08.4-.18.83-.3,1.3-.12.47-.22.91-.3,1.3-.08.4-.13.62-.13.69v.28h.4l.4-.57v-.19c0-.09.03-.38.1-.85.07-.47.1-.84.1-1.09v-.14Z"/>
    <path class="cls-1" d="M64.98,365.48c3.54,1.33,5.82,2.55,6.81,3.66,1,1.11,1.5,2.11,1.5,2.99,0,1.44-.5,2.77-1.5,3.99-1,1.22-2.77,1.83-5.32,1.83-2.33-.55-4.38-.91-6.15-1.08-1.77-.17-3.44-.25-4.99-.25-1.22,0-2.08.03-2.58.08-.5.06-1.31.08-2.41.08-1.33,0-2.8-.03-4.4-.08-1.61-.05-3.3-.08-5.07-.08-2.77,0-5.26.17-7.48.5-2.22.33-4.46.72-6.73,1.16-2.27.45-4.65.83-7.15,1.16-2.49.33-5.46.5-8.89.5-.66-.22-1.39-.36-2.16-.42-.78-.05-1.53-.25-2.24-.58-.72-.33-1.33-.83-1.83-1.5s-.75-1.66-.75-2.99c0-.66.08-1.38.25-2.16.17-.77.52-1.5,1.08-2.16.55-.66,1.38-1.19,2.49-1.58,1.1-.39,2.6-.58,4.49-.58.66-.66,1.22-1.11,1.66-1.33s.85-.44,1.25-.66c.39-.22.77-.55,1.16-1,.39-.44.8-1.27,1.25-2.49.77-6.32,1.33-11.88,1.66-16.7.33-4.82.5-26.47.5-30.79,0-1.11-.11-2.58-.33-4.4-.23-1.83-.45-3.74-.66-5.73-.23-1.99-.45-3.91-.66-5.73-.23-1.83-.33-3.24-.33-4.24,0-.88.05-2.44.17-4.65.11-2.21.17-4.43.17-6.65,0-1.99-.03-4.26-.08-6.81-.06-2.55-.14-4.96-.25-7.23-.11-2.27-.23-5.01-.33-8.23,0-1.77.11-3.43.33-4.99.22-1.55.33-3.1.33-4.65,0-1.33-.06-3.24-.17-5.73-.11-2.49-.25-5.15-.42-7.98-.17-2.83-.31-5.54-.42-8.14-.11-2.6-.17-4.62-.17-6.07,0-.77.05-1.91.17-3.41.11-1.5.25-3.02.42-4.57.17-1.55.33-3.02.5-4.4.17-1.38.25-2.35.25-2.91,0-1.33-.03-2.27-.08-2.83-.06-.55-.08-1-.08-1.33.22-1.55.39-3.16.5-4.82.11-1.66.22-3.27.33-4.82.11-1.55.19-2.94.25-4.15.05-1.22.08-2.16.08-2.83-.56.33-1.22.86-1.99,1.58-.78.72-1.58,1.41-2.41,2.08s-1.66,1.25-2.49,1.75-1.58.75-2.24.75c-2.88,0-5.24-.61-7.06-1.83-1.83-1.22-2.74-2.38-2.74-3.49.23-1.99,1.14-3.96,2.74-5.9,1.6-1.94,3.63-4.18,6.07-6.73.22-.33.75-.86,1.58-1.58.83-.72,1.8-1.58,2.91-2.58,1.1-1,2.3-2.05,3.57-3.16,1.27-1.11,2.58-2.16,3.91-3.16l4.32-3.32c1.1-1.44,2.8-3.52,5.07-6.23,2.27-2.71,4.65-5.43,7.15-8.14,2.49-2.71,4.84-5.1,7.06-7.15,2.21-2.05,3.76-3.07,4.65-3.07,2.55,0,4.43.89,5.65,2.66,1.22,1.77,1.83,3.49,1.83,5.15,0,1.55-.06,3.05-.17,4.49-.11,1.44-.17,2.94-.17,4.49,0,4.1.14,7.67.42,10.72.27,3.05.42,4.85.42,5.4,0,6.87.17,13.46.5,19.78.33,6.32.5,11.97.5,16.95,0,1.33-.03,2.88-.08,4.65-.06,1.77-.08,3.55-.08,5.32s-.03,3.41-.08,4.9c-.06,1.5-.08,2.63-.08,3.41,0,1.22.27,3.05.83,5.48.55,2.44.83,4.54.83,6.32,0,.55-.11,1.5-.33,2.83-.23,1.33-.45,2.77-.66,4.32-.23,1.55-.45,3.05-.66,4.49-.23,1.44-.33,2.61-.33,3.49.33,4.99.64,9.31.91,12.96.27,3.66.5,6.84.66,9.56.17,2.72.27,5.04.33,6.98.05,1.94.08,3.63.08,5.07,0,3.32-.06,6.59-.17,9.81-.11,3.21-.2,6.12-.25,8.73-.06,2.61-.14,4.77-.25,6.48-.11,1.72-.17,2.74-.17,3.07,0,1.22.02,2.27.08,3.16.05.89.08,1.99.08,3.32l-.33,30.21v2.83c0,2.44.11,4.29.33,5.57.22,1.28.58,2.24,1.08,2.91s1.19,1.14,2.08,1.41c.88.28,1.93.64,3.16,1.08ZM28.92,188.52l-2.83-.66v6.15l2.33,1.83.5-7.31ZM28.25,209.96l-1-8.81-.83,1.5v11.97l1.83-4.65ZM30.58,167.58l-1.5-2.49-1.99,3.49,1.33,2.99h1.33l.83-3.99ZM37.89,369.13l-.66-15.29c-.23-.55-.39-1.05-.5-1.5-.33-.77-.5-1.38-.5-1.83-1,.55-1.5,1.44-1.5,2.66l.66,15.62,1.83,1,.66-.66ZM41.55,249.51l-.17-5.82h-.83l-1.33,8.14,2.33-2.33ZM41.72,297.71c.44-1.88.66-3.54.66-4.99,0-6.32-.17-12.13-.5-17.45s-.89-9.25-1.66-11.8c0,.11-.06.61-.17,1.5-.11.89-.23,1.88-.33,2.99-.11,1.11-.23,2.22-.33,3.32-.11,1.11-.17,1.94-.17,2.49,0,1.33.05,3.02.17,5.07.11,2.05.25,4.24.42,6.56.17,2.33.42,4.65.75,6.98.33,2.33.72,4.32,1.16,5.98v-.66ZM43.21,220.76l-1.66,9.81-1.33,3.16,1.99,3.66,1-16.62ZM48.7,245.36c-.45,1.22-.69,2.3-.75,3.24-.06.94-.08,2.47-.08,4.57,0,1.66.14,3.69.42,6.07.27,2.38.97,5.02,2.08,7.89.33-2.21.58-3.93.75-5.15.17-1.22.25-2.33.25-3.32,0-.88-.08-2.02-.25-3.41-.17-1.38-.39-2.77-.66-4.15-.28-1.38-.58-2.6-.91-3.66-.33-1.05-.61-1.75-.83-2.08ZM52.19,277.6l-2.16-4.15v7.98l2.16-3.82Z"/>
    <path class="cls-1" d="M217.72,317.98c0,6.31-1.28,13.23-3.82,20.75-2.55,7.53-6.59,14.5-12.13,20.91-.78.33-1.22,1.05-1.33,2.16-4.55,3.54-8.78,6.5-12.71,8.88-3.94,2.38-7.89,4.32-11.88,5.81-3.99,1.5-8.17,2.57-12.55,3.24-4.38.66-9.34.99-14.87.99-4.32,0-8.78-.55-13.38-1.66-4.6-1.11-9.12-2.65-13.54-4.65-4.43-1.99-8.64-4.42-12.63-7.3-3.99-2.88-7.54-6.14-10.64-9.79-3.66-4.21-6.35-8.05-8.06-11.54-1.72-3.48-3.07-6.67-4.07-9.55-1.22-3.87-2.16-8.35-2.83-13.44-.66-5.09-1-10.95-1-17.59,0-.55.25-2.57.75-6.06s1.75-7.66,3.74-12.53c1.99-4.87,5.07-10.04,9.22-15.52,4.15-5.48,9.89-10.48,17.2-15.02l2.66-1c2.77-1.77,5.43-3.18,7.98-4.23,2.55-1.05,5.21-1.85,7.98-2.41,2.77-.55,5.79-.88,9.06-1,3.26-.11,7-.17,11.22-.17,11.85,0,22.54,2.41,32.08,7.22,9.53,4.82,16.84,11.76,21.94,20.83.55,1.44,1.19,2.85,1.91,4.23.72,1.38,1.41,2.41,2.08,3.07,2.66,6.86,4.59,13.14,5.82,18.84,1.22,5.7,1.83,11.21,1.83,16.52ZM90.24,310.59c-.89,1.99-1.33,3.27-1.33,3.82,0,.89.25,2.08.75,3.57s.97,2.3,1.41,2.41l.17-11.47-1,1.66ZM114.34,267.71c0,.11-.23.39-.66.83l-1.41,1.41c-.5.5-.97,1.03-1.41,1.58-.45.55-.66,1-.66,1.33l1.16,1c.77-.66,1.63-1.5,2.58-2.49.94-1,2.18-2.44,3.74-4.32l-3.32.66ZM113.84,277.02c-.45.11-1,.64-1.66,1.58-.66.94-1.11,1.53-1.33,1.75v2.99c0,.78.02,1.33.08,1.66.05.33.19.72.42,1.16h1l1.99-8.48-.5-.66ZM112.68,339.84c1.1,2.55,1.99,3.88,2.66,3.99l.33-1.83-2.99-2.16ZM118,330.2c-.56-.77-1.11-3.49-1.66-8.14-.11-.77-.17-1.38-.17-1.83s-.06-.83-.17-1.16c-.66,1.55-1,3.1-1,4.65v1.83c0,1.66.77,3.6,2.33,5.82h.66v-1.16ZM119.66,349.81h-1.33v3.16l.66,1c.66.89,1.27,1.64,1.83,2.24.55.61,1.05.97,1.5,1.08v-1.16l-2.66-6.32ZM128.97,255.25c-1.77.33-4.32,1.44-7.65,3.32l-2.16,1.33.33,1.66h1.33l2.49-1.25c1-.5,1.91-1.02,2.74-1.58.83-.55,1.58-1.08,2.24-1.58s1-.91,1-1.25l-.33-.66ZM128.8,367.1l-2.99-1.66v1l2.99,1.66v-1ZM171.68,310.59c0-17.17-1.8-30.3-5.4-39.39-3.6-9.08-9.56-13.63-17.87-13.63-1.33,0-2.61.33-3.82,1-1.22.66-2.36,1.44-3.41,2.33-1.06.89-1.94,1.83-2.66,2.83-.72,1-1.25,1.83-1.58,2.49-1.56,2.66-2.72,4.6-3.49,5.82-.78,1.22-1.28,2.11-1.5,2.66-.66,1-1,2.3-1,3.91s-.23,3.07-.66,4.4c-.45,1.33-.83,3.19-1.16,5.57-.33,2.38-.58,5.21-.75,8.48-.17,3.27-.31,6.87-.42,10.8-.11,3.94-.17,8.12-.17,12.55s.05,7.89.17,11.05c.11,3.16.3,5.98.58,8.48.27,2.49.61,4.71,1,6.65.39,1.94.85,3.8,1.41,5.57l-.17-.17c3.32,6.87,6.09,11.72,8.31,14.54,2.21,2.83,4.15,4.24,5.82,4.24l5.65.5c2.21,0,4.13-.19,5.73-.58,1.6-.39,3.07-1.33,4.4-2.83s2.55-3.71,3.66-6.65c1.1-2.94,2.33-6.9,3.66-11.88,1.55-5.65,2.55-11.3,2.99-16.95.44-5.65.66-11.47.66-17.45v-4.32ZM181.65,362.61l-2.83,1.5v1l2.83-1.83v-.66ZM184.64,302.95c-.23.45-.45,1.11-.66,1.99-.23.89-.45,1.8-.66,2.74-.23.94-.42,1.83-.58,2.66s-.31,1.41-.42,1.75l.33,1.83-.33,1.5c-.78,3.55-1.39,6.68-1.83,9.39-.45,2.72-.72,5.02-.83,6.9h1.16c.55-3.54,1.19-7.34,1.91-11.38.72-4.04,1.63-8.89,2.74-14.54l-.83-2.83ZM183.48,260.73h-1.16c0,1.44.39,2.88,1.16,4.32h1l1.16-2.49-2.16-1.83ZM195.45,353.47c-.33,0-.72.28-1.16.83-.45.55-.91,1.16-1.41,1.83s-.91,1.36-1.25,2.08c-.33.72-.5,1.25-.5,1.58,0,.11.05.28.17.5,0,.22.02.39.08.5.05.11.08.22.08.33l5.15-6.65-1.16-1ZM193.62,274.36l-1.83,2.33,3.66,1.66-1.83-3.99ZM195.61,287.49v2.49l2.33,1.66.66-2.83-2.99-1.33ZM201.1,341l-.17,3.66c.66,0,1-.44,1-1.33l1.33-2.66-2.16.33ZM207.41,317.07c0-.55-.11-1.41-.33-2.58-.23-1.16-.33-2.02-.33-2.58-.45.89-.69,2.16-.75,3.82-.06,1.66-.2,2.94-.42,3.82l-.5-1c0,1.88.05,3.3.17,4.24.11.94.22,1.69.33,2.24.55.22,1-.55,1.33-2.33.33-1.77.5-3.66.5-5.65Z"/>
    <path class="cls-1" d="M342.7,248.94c2.21.89,3.32,1.92,3.32,3.11,0,.89-.56,1.8-1.66,2.74-1.11.94-2.61,1.9-4.49,2.89-1.56.49-3.24.89-5.07,1.18s-3.57.79-5.24,1.48c-.45.99-.91,2.12-1.41,3.4-.5,1.28-1.08,2.84-1.75,4.66-.66,1.83-1.47,4.02-2.41,6.59-.94,2.57-2.14,5.62-3.57,9.18-1.66,4.14-3.1,7.72-4.32,10.73-1.22,3.01-2.11,5.25-2.66,6.73-.33,1.28-.72,2.59-1.16,3.92-.45,1.33-1.22,2.89-2.33,4.66h.17c-1.33,2.37-2.64,5.9-3.91,10.58-1.28,4.69-2.86,10.14-4.74,16.35l-1.83,6.36c-1,3.06-2.05,6.09-3.16,9.1-1.11,3.01-2.19,5.82-3.24,8.44-1.06,2.62-2.02,4.96-2.91,7.03-.89,2.07-1.56,3.65-1.99,4.74-.56,1.18-1,2.17-1.33,2.96-.33.79-.72,1.41-1.16,1.85-.45.44-.97.79-1.58,1.04-.61.25-1.47.52-2.58.81-5.1-.79-10.11-4.88-15.04-12.28-4.93-7.4-10-18.15-15.21-32.27-.89-2.37-1.83-4.86-2.83-7.47-1-2.61-1.94-5.06-2.83-7.33-2.77-6.91-5.15-13.07-7.15-18.5-1.99-5.43-3.38-9.72-4.15-12.88-2.66-9.27-4.85-16.11-6.56-20.5-1.72-4.39-2.97-6.59-3.74-6.59-1.44-.59-2.66-1.06-3.66-1.41-1-.34-1.77-.62-2.33-.81-1.55-.39-2.68-.76-3.41-1.11-.72-.34-1.22-.69-1.5-1.04-.27-.34-.42-.76-.42-1.26v-1.63c0-.3.06-.67.17-1.11.11-.44.36-.89.75-1.33.39-.44.91-.81,1.58-1.11s1.56-.34,2.66-.15c1.44.2,3.57.4,6.4.59,2.83.2,5.4.4,7.73.59l5.32.74c1.66-.1,3.1-.2,4.32-.3,1.22-.1,2.46-.15,3.74-.15h17.7c1.1,0,1.93.1,2.49.3,2.33-.2,4.37-.34,6.15-.44,1.77-.1,3.66-.15,5.65-.15.88,0,1.88.03,2.99.07,1.1.05,1.88.17,2.33.37.22.49.44.91.66,1.26.22.35.44.67.66.96l.5.89c0,1.09-.47,1.88-1.41,2.37-.94.49-2.02.84-3.24,1.04-1.22.2-2.49.3-3.82.3s-2.33.05-2.99.15c-1.89.79-3.1,2.12-3.66,4-.56,1.88-.83,4.44-.83,7.7,0,.49.27,1.75.83,3.77.55,2.02,1.33,4.76,2.33,8.21h-.17l1.5,4.59,5.98,18.06c1.55,5.62,3.07,10.98,4.57,16.06,1.5,5.08,3.02,9.1,4.57,12.06l1.5-5.33c.77-2.56,1.63-5.6,2.58-9.1.94-3.5,2.02-7.25,3.24-11.25,1.22-4,2.58-8.09,4.07-12.28,1.5-4.19,3.13-8.31,4.9-12.36,1.55-3.55,2.71-7.03,3.49-10.43.77-3.4,1.16-6.39,1.16-8.95,0-1.68-.5-3.18-1.5-4.51s-1.89-2.39-2.66-3.18c-.23-.1-.91-.42-2.08-.96-1.16-.54-1.75-1.45-1.75-2.74,0-1.08.61-2.02,1.83-2.81,1.22-.79,3.1-1.18,5.65-1.18s4.79.03,6.4.07c1.6.05,3.18.17,4.74.37,3.43.4,6.48.62,9.14.67,2.66.05,4.76.07,6.32.07.88,0,1.77-.1,2.66-.3.88-.2,2.43-.39,4.65-.59ZM254.45,262.7c-.11-.2-.23-.17-.33.07-.11.25-.17.62-.17,1.11,0,.69.17,1.92.5,3.7l2.83,4.29c0-.49.02-.89.08-1.18.05-.3.08-.64.08-1.04,0,.3-.2-.22-.58-1.55-.39-1.33-1.19-3.13-2.41-5.4ZM258.44,329.9c-.11-.79-.36-1.75-.75-2.89-.39-1.13-.91-2.54-1.58-4.22l-1.16-2.81-.5,2.66,3.99,7.25ZM262.26,288.31c0,.3.27,1.11.83,2.44.55,1.33,1.16,2.74,1.83,4.22.66,1.48,1.3,2.84,1.91,4.07.61,1.23,1.02,2,1.25,2.29l-.17-4.29c-.23-.59-.56-1.53-1-2.81-.45-1.28-.97-2.59-1.58-3.92-.61-1.33-1.16-2.52-1.66-3.55s-.91-1.6-1.25-1.7l-.17,3.26ZM270.07,311.4c.33,1.09.8,2.47,1.41,4.14.61,1.68,1.3,3.43,2.08,5.25.77,1.83,1.58,3.6,2.41,5.33.83,1.73,1.69,3.18,2.58,4.37,0-1.78-.23-3.16-.66-4.14-1.66-5.33-3.13-9.57-4.4-12.73-1.28-3.16-2.58-5.72-3.91-7.7v2.15c0,1.23.17,2.34.5,3.33ZM274.72,362.16l-.5-2.07c-1.11-1.78-1.91-2.98-2.41-3.63-.5-.64-.91-1.06-1.25-1.26v.89c0,.2.11.69.33,1.48.22.79.5,1.63.83,2.52s.66,1.68,1,2.37c.33.69.66,1.09,1,1.18l.66-.3.33-1.18ZM304.31,310.51l-.17-2.96-2.99,8.44,1.33,2.52,1.83-7.99ZM305.3,303.55c.22-.39.61-1.04,1.16-1.92.55-.89.83-1.63.83-2.22l-1.33-.74c0,1.58-.23,3.21-.66,4.88Z"/>
    <path class="cls-1" d="M379.26,306.52c0,2.22-.03,4.52-.08,6.9-.06,2.38-.08,4.74-.08,7.06,0,.22.11,1.61.33,4.15.22,2.55.77,6.26,1.66,11.14l2.33,14.13c1,5.87,2.33,10,3.99,12.38,1.66,2.38,2.93,3.63,3.82,3.74,3.88,1.22,6.56,1.94,8.06,2.16,1.5.22,2.35.33,2.58.33.44,0,1.05-.08,1.83-.25.77-.17,1.72-.53,2.83-1.08l4.99-2.33c.22-.22.58-.61,1.08-1.16.5-.55.97-1.11,1.41-1.66.11-.11.61-1.19,1.5-3.24.88-2.05,1.85-4.68,2.91-7.89,1.05-3.21,2.02-6.84,2.91-10.89.88-4.04,1.33-8.17,1.33-12.38.11-1.66.17-3.13.17-4.4s.22-2.35.66-3.24c.44-.88,1.13-1.55,2.08-1.99.94-.44,2.35-.66,4.24-.66,1.66,0,3.13.42,4.4,1.25,1.27.83,1.91,2.19,1.91,4.07,0,.33-.03.66-.08,1-.06.33-.08.61-.08.83.55,1.99.88,3.55,1,4.65.11,1.11.17,2.05.17,2.83,0,1.33-.2,3.24-.58,5.73-.39,2.49-.91,5.15-1.58,7.98-.66,2.83-1.47,5.6-2.41,8.31-.94,2.72-1.97,4.9-3.07,6.56-2.22,3.32-3.74,5.73-4.57,7.23s-1.58,2.61-2.24,3.32c-.66.72-1.47,1.39-2.41,1.99-.94.61-2.64,1.69-5.07,3.24-1.44.89-3.13,1.33-5.07,1.33s-4.4.61-7.4,1.83h-13.96c-.89-.33-1.77-.64-2.66-.91-.89-.28-2.11-.42-3.66-.42l-6.81-1c-2.55-.55-4.74-1.3-6.56-2.24-1.83-.94-3.02-2.02-3.57-3.24-2.22-2.21-4.6-4.79-7.15-7.73-2.55-2.94-4.93-6.18-7.15-9.72-2.99-4.65-4.77-8.56-5.32-11.72-.56-3.16-.89-5.62-1-7.4,0-.77-.17-2.49-.5-5.15s-.66-5.57-1-8.73-.64-6.29-.91-9.39c-.28-3.1-.42-5.54-.42-7.31,0-7.98.97-15.73,2.91-23.27,1.93-7.53,4.9-14.26,8.89-20.19,3.99-5.93,9.06-10.66,15.21-14.21,6.15-3.54,13.43-5.32,21.85-5.32,5.87,0,11.41,1.05,16.62,3.16,5.21,2.11,9.81,4.77,13.79,7.98,3.99,3.21,7.25,6.68,9.81,10.39,2.55,3.71,4.15,7.23,4.82,10.55l2.49,12.3c.44,3.44.69,6.07.75,7.89.05,1.83.08,3.19.08,4.07,0,1.33-.08,2.47-.25,3.41-.17.94-.58,1.72-1.25,2.33-.66.61-1.75,1.03-3.24,1.25-1.5.22-3.57.33-6.23.33-2.88-.44-5.4-.72-7.56-.83-2.16-.11-4.18-.17-6.07-.17-5.32,0-10.55.06-15.71.17-5.15.11-9.67.39-13.54.83l-6.15,1.33ZM353.83,342.08c-.23-.11-.61-.75-1.16-1.91-.56-1.16-1.06-1.75-1.5-1.75v1.66l.5,1c.77,1.33,1.22,2.27,1.33,2.83h1l-.17-1.83ZM352.5,292.23h.5c.55,0,.91-.08,1.08-.25s.42-1.19.75-3.07h-2.33v3.32ZM357.65,329.62c0-1.66-.23-3.35-.66-5.07-.45-1.72-1-2.96-1.66-3.74h-.66c0,.22-.06.61-.17,1.16-.11.55-.17.94-.17,1.16,0,2.22.55,5.04,1.66,8.48l1,2.99.66.17v-5.15ZM355.99,294.72c-.33.55-.58,1.72-.75,3.49-.17,1.77-.31,3.21-.42,4.32.11,0,.36.08.75.25.39.17.64.25.75.25.33,0,.58-.25.75-.75s.3-1.08.42-1.75c.11-.66.19-1.36.25-2.08.05-.72.19-1.3.42-1.75l-.5-1.99h-1.66ZM362.47,346.9c-1.77-3.77-2.99-5.87-3.66-6.32.22,1.88.69,3.63,1.41,5.24.72,1.61,1.47,2.58,2.24,2.91v-1.83ZM364.97,257.82l-1,1.33.5,3.16,1-.33-.5-4.15ZM376.27,367.68l-.33.33.66,2.16h1.66l-1.99-2.49ZM404.02,285.58c0-1.22-.03-2.77-.08-4.65-.06-1.88-.17-3.91-.33-6.07s-.42-4.4-.75-6.73-.83-4.6-1.5-6.81c-.78-2.44-1.39-4.35-1.83-5.73-.45-1.38-.94-2.46-1.5-3.24-.56-.77-1.19-1.27-1.91-1.5-.72-.22-1.75-.33-3.07-.33-1.99.11-3.55.83-4.65,2.16-1.11,1.33-1.97,2.91-2.58,4.74-.61,1.83-1.14,3.8-1.58,5.9-.45,2.11-1.06,3.99-1.83,5.65-1.11,2.33-1.94,5.07-2.49,8.23-.56,3.16-.83,5.73-.83,7.73v11.63c3.88-.44,7.09-.72,9.64-.83,2.55-.11,5.26-.17,8.14-.17h7.15v-9.97ZM414.33,290.73c0-1.11-.31-2.3-.91-3.57-.61-1.27-1.03-2.13-1.25-2.58,0,1.44-.17,3.24-.5,5.4s-.56,3.63-.66,4.4c.33-.33.69-.55,1.08-.66.39-.11.75-.25,1.08-.42s.61-.42.83-.75c.22-.33.33-.94.33-1.83ZM419.81,293.39l-1.66.66.5,1.16,1.83.5-.66-2.33ZM421.47,281.76c0-1.88-.39-4.21-1.16-6.98l-.83-2.83v14.46l.5-1.16c1-1.44,1.5-2.6,1.5-3.49ZM426.63,343.91l-1.16,1.66-1,4.99h1.66l.5-6.65ZM426.96,339.26l-1.66.66.5,1.16,1.83.5-.66-2.33Z"/>
  </g>
  <g>
    <path class="cls-1" d="M356.94,19.19c-.31-2.73-.9-5.31-1.88-7.63-.21-.67-.53-1.31-.84-1.91-.87-1.67-1.94-3.17-3.28-4.47-1.75-1.76-3.93-3.11-6.61-4.01-1.56-.55-3.29-.89-5.18-1.1-.3-.03-.57-.06-.88-.05-3.11-.19-6.03.33-8.78,1.46-.74.28-1.44.6-2.14.98-1.1.59-2.2,1.28-3.24,2.11-.43.31-.83.62-1.23.96t-.03.03c-2.13,1.82-4.12,4.05-5.96,6.61-1.78,2.46-3.42,5.22-4.89,8.21-7.74,15.41-12.03,37.64-12.71,59.98-.06,2.67-.08,5.3-.07,7.96.06,5.5.35,10.96.84,16.28l4.42-16.19,5.49-.14,15.27,1.35,16.7-20.58c3.97-6.54,8.3-14.27,10.27-19.49,3.04-8.21,5.84-20.23,4.73-30.37ZM307.9,67.11c.31.33.63,1.64,1.04,3.9l-.29.98c-.34-.3-.62-.9-.77-1.88-.15-.98-.13-1.99.02-3ZM308.15,63.8l-.34-.16-.1-1.75c-.07-1.99.04-3.61.36-4.8.03-.1.13-.31.26-.58s.23-.48.26-.61l.37.09c.25.54.36,1.28.34,2.25-.02.98-.17,1.93-.39,2.81l-.76,2.74ZM304.85,68.18l-.54-.16c.03-.3-.08-.88-.3-1.68l-.11-.64.26-.88c.24.06.41.47.52,1.17.15.71.25,1.08.36,1.17l-.19,1.01ZM313.06,85.55l-.02-1.25.23-.14.7,1.64-.91-.25ZM329.44,16.51l.62,4.78.21.37v.37c0,.07-.06.24-.19.54-.1.31-.16.54-.16.64l-2.06-6.14,1.58-.57ZM323.24,74.92c-.53.35-1.1.52-1.78.53,0-.1.03-.24.06-.37.24-1.66.73-2.51,1.54-2.52l1.03.93c-.06.61-.35,1.09-.85,1.43ZM330.42,31.36c.25,1.01.4,1.85.41,2.52.01.74,0,1.65-.06,2.73s-.13,2.4-.31,3.92c-.14,1.49-.26,2.77-.31,3.88-.05,1.11-.07,2.02-.06,2.77l-1.2-.99.23-8.77.02-4.86.03-2.23c-.11-.27-.25-.6-.39-1.11-.11-.5-.19-1.01-.19-1.58,0-.54.05-1.01.21-1.45.13-.44.46-.99.92-1.67.07.3.25.74.53,1.31.28.5.42.94.43,1.24.03.03.03.07.04.1,0,.54-.25,1.32-.7,2.31,0,.24.12.87.4,1.88ZM332.26,59.06l.24-1.86,2.3-6.04.61,2.32-3.15,5.58ZM333.96,16.43l-.18-.57-1.39-4.67,1.47-.77.87,3.76.22,1.01-.99,1.23ZM338.26,48.91c-.51-.13-.75-.59-.77-1.47-.02-.98.17-2.23.58-3.69l.25-1.02,2.76-2.27c-.32,3.38-1.28,6.19-2.83,8.44ZM339.64,37.99l-.03-2.12h.84c.51-.02.82.34,1,1.08.15.74.26,1.35.27,1.85l-2.07-.81Z"/>
    <path class="cls-1" d="M404.3,71.27c-4.23-3.14-11.02-5.32-20.85-6.51-7.54-.89-15,.28-21.78,2.38-3.62,1.1-7.04,2.48-10.16,3.94-.04.02-.08.04-.12.05-6.12,2.85-9.62,5.89-13.9,11.12l-5.34,5.63-5.22,6.39-.1.1-.57-.06-3.11.16-13.82-2.11-7.33,24.17c1.79-.06,9.84-.36,22.38-.87,5.66-.26,12.27-.54,19.62-.89.47,0,.98-.05,1.48-.06,15.81-.73,32.66-3.33,45.02-8.46,7.2-3.02,12.87-6.86,15.9-11.66.49-.82.92-1.63,1.28-2.48,3.7-9,3.21-16.04-3.38-20.86ZM331.46,104.94c-.26.68-.35,1.05-.32,1.19l-.66.79-.38-.4c.16-.24.36-.78.58-1.63l.19-.58.66-.65c.17.17.14.6-.08,1.28ZM332.64,111.43l-.73.72c-.18-.44-.09-1.11.27-2.03s.85-1.8,1.51-2.62c.07.44-.28,1.76-1.05,3.93ZM339.28,100.5c-.49.85-1.09,1.6-1.75,2.25l-2.02,2.02-.17-.33.78-1.56c.92-1.77,1.8-3.1,2.67-3.96.1-.1.27-.21.53-.38.27-.21.43-.31.53-.41l.24.27c-.02.57-.32,1.29-.81,2.1ZM365.87,74.94c-.27.07-.54.24-.83.52-.33.24-.63.48-.93.69-.3.24-.57.41-.83.52-.27.14-.47.14-.61,0-.03-.03-.1-.17-.18-.4-.1-.2-.17-.33-.21-.37.5-.41,1.1-.93,1.86-1.55s1.33-.97,1.67-1.07l.65.66-.59.99ZM366.16,71.46c-.13,0-.31-.1-.55-.33l-.17-.2,1.29-1.3.93.93c-.9.62-1.37.9-1.5.9ZM390.69,99.02l-.52-.9.26-.65.92.39-.66,1.16ZM391.26,92.9c-.26.75-.59,1.33-1.05,1.74-.33.38-.63.55-.83.59-.23.07-.44.04-.61-.02-.2-.06-.41-.16-.61-.26-.17-.1-.41-.16-.68-.16.37-.28,1.03-.76,2-1.48.97-.69,1.77-1.34,2.33-1.89-.1.24-.29.75-.55,1.49ZM398.85,90.75c-.79,1.4-1.55,2.45-2.31,3.21-.33.34-1,.59-1.94.77l-.67.25,5.71-5.66-.79,1.43Z"/>
  </g>
</svg>